<svg xmlns="http://www.w3.org/2000/svg" width="138" height="138" fill="none" viewBox="0 0 138 138"><path fill="#EEEFF1" d="M88.06 17c3.88 0 6.586-.037 8.883.65 5 1.496 8.912 5.408 10.408 10.408.433 1.448.576 3.06.625 5.026.522.023 1.019.052 1.492.09 2.217.182 4.211.568 6.07 1.515a15.504 15.504 0 0 1 6.774 6.774c.947 1.859 1.333 3.853 1.514 6.07.178 2.177.175 4.865.175 8.167v45.6c0 3.302.003 5.99-.175 8.167-.181 2.217-.567 4.211-1.514 6.07a15.504 15.504 0 0 1-6.774 6.773c-1.859.948-3.853 1.334-6.07 1.515-2.177.178-4.865.175-8.167.175h-45.6c-3.302 0-5.99.003-8.167-.175-2.217-.181-4.211-.567-6.07-1.515a15.496 15.496 0 0 1-6.774-6.773c-.947-1.859-1.333-3.853-1.514-6.07a40.947 40.947 0 0 1-.091-1.487c-1.797-.038-3.268-.153-4.596-.508a15.5 15.5 0 0 1-10.96-10.96c-.558-2.084-.528-4.517-.528-8.012V39.7c0-3.302-.003-5.99.175-8.167.181-2.217.567-4.211 1.514-6.07a15.501 15.501 0 0 1 6.774-6.774c1.859-.947 3.853-1.333 6.07-1.514C33.711 16.997 36.4 17 39.701 17H88.06ZM55.7 40c-3.418 0-5.771.003-7.596.152-1.785.146-2.756.414-3.463.775a8.5 8.5 0 0 0-3.714 3.714c-.36.707-.629 1.678-.775 3.462-.149 1.826-.152 4.18-.152 7.597v45.6c0 3.418.003 5.771.152 7.596.146 1.785.414 2.755.775 3.463a8.501 8.501 0 0 0 3.714 3.714c.707.361 1.678.629 3.462.775 1.826.149 4.18.152 7.597.152h45.6c3.418 0 5.771-.003 7.596-.152 1.785-.146 2.756-.414 3.463-.775a8.502 8.502 0 0 0 3.714-3.714c.361-.708.629-1.678.775-3.463.149-1.825.152-4.178.152-7.596V55.7c0-3.418-.003-5.771-.152-7.597-.146-1.784-.414-2.755-.775-3.462a8.502 8.502 0 0 0-3.714-3.714c-.707-.36-1.678-.629-3.463-.775-1.825-.149-4.178-.152-7.596-.152h-45.6Zm24.98 61.005a3.5 3.5 0 0 1 0 6.99l-.18.005h-24a3.5 3.5 0 1 1 0-7h24l.18.005ZM39.7 24c-3.418 0-5.771.003-7.596.152-1.785.146-2.756.414-3.463.775a8.5 8.5 0 0 0-3.714 3.714c-.36.707-.629 1.678-.775 3.462-.149 1.826-.152 4.18-.152 7.597v48.8c0 3.945.03 5.231.29 6.2a8.5 8.5 0 0 0 6.01 6.01c.597.16 1.314.229 2.7.262V55.7c0-3.302-.003-5.99.175-8.167.181-2.217.567-4.211 1.514-6.07a15.501 15.501 0 0 1 6.774-6.774c1.859-.947 3.853-1.333 6.07-1.514C49.711 32.997 52.4 33 55.701 33h45.267c-.041-1.503-.129-2.286-.323-2.937a8.503 8.503 0 0 0-5.707-5.707c-1.069-.32-2.496-.356-6.878-.356H39.7Zm60.98 61.005a3.5 3.5 0 0 1 0 6.99l-.18.005h-44a3.5 3.5 0 1 1 0-7h44l.18.005ZM66.101 53c1.062 0 2.07-.002 2.912.066.772.063 1.64.2 2.516.575l.377.176.261.14a7.5 7.5 0 0 1 3.017 3.138c.51 1.003.678 2.01.75 2.893.07.843.067 1.85.067 2.912v3.2c0 1.062.002 2.07-.066 2.912-.073.883-.24 1.89-.751 2.893a7.502 7.502 0 0 1-3.278 3.278c-1.003.51-2.01.678-2.893.75-.843.07-1.85.067-2.912.067h-3.2c-1.062 0-2.07.002-2.912-.067-.883-.072-1.89-.24-2.893-.75a7.5 7.5 0 0 1-3.278-3.278c-.51-1.003-.678-2.01-.75-2.893-.07-.843-.067-1.85-.067-2.912v-3.2c0-1.062-.002-2.07.066-2.912.073-.883.24-1.89.751-2.893l.14-.261a7.501 7.501 0 0 1 3.138-3.017l.377-.175c.876-.376 1.743-.513 2.516-.576.843-.068 1.85-.066 2.912-.066h3.2Zm-3.2 7c-1.177 0-1.851.003-2.342.043a3.131 3.131 0 0 0-.335.042.5.5 0 0 0-.138.138c-.01.052-.027.157-.042.335-.04.491-.043 1.164-.043 2.342v3.2c0 1.177.003 1.85.043 2.342.014.177.032.281.042.334a.499.499 0 0 0 .138.138c.052.01.157.028.335.043.491.04 1.165.043 2.342.043h3.2c1.177 0 1.851-.003 2.342-.043a3.03 3.03 0 0 0 .334-.043.495.495 0 0 0 .138-.138c.01-.053.029-.157.043-.334.04-.491.043-1.165.043-2.342v-3.2c0-1.178-.003-1.851-.043-2.342a3.006 3.006 0 0 0-.043-.335.497.497 0 0 0-.138-.138 3.11 3.11 0 0 0-.334-.042c-.491-.04-1.165-.043-2.342-.043h-3.2Z" opacity=".07"></path><path fill="#EEEFF1" d="M88.059 20c4.096 0 6.253-.005 8.024.524a12.502 12.502 0 0 1 8.393 8.393c.488 1.632.519 3.593.521 7.097 1.632.016 3.021.053 4.226.151 2.031.166 3.586.502 4.952 1.197a12.504 12.504 0 0 1 5.463 5.463c.695 1.366 1.031 2.92 1.197 4.952.166 2.026.165 4.571.165 7.923v45.6c0 3.352.001 5.897-.165 7.923-.166 2.031-.502 3.586-1.197 4.952a12.508 12.508 0 0 1-5.463 5.463c-1.366.695-2.921 1.031-4.952 1.197-2.026.166-4.571.165-7.923.165H55.7c-3.352 0-5.897.001-7.923-.165-2.031-.166-3.586-.502-4.952-1.197a12.504 12.504 0 0 1-5.463-5.463c-.696-1.366-1.03-2.921-1.197-4.952-.098-1.205-.135-2.593-.151-4.225l-1.975-.004c-2.177-.019-3.57-.097-4.774-.42a12.5 12.5 0 0 1-8.84-8.839c-.322-1.204-.4-2.597-.42-4.774L20 88.5V39.7c0-3.352 0-5.897.165-7.923.166-2.031.502-3.586 1.197-4.952a12.501 12.501 0 0 1 5.463-5.463c1.366-.695 2.92-1.03 4.952-1.197C33.803 20 36.348 20 39.7 20H88.06ZM55.7 37c-3.368 0-5.865 0-7.84.162-1.97.161-3.38.48-4.58 1.092a11.499 11.499 0 0 0-5.026 5.025c-.612 1.201-.93 2.61-1.092 4.58C37.001 49.835 37 52.332 37 55.7v45.6c0 3.368 0 5.865.162 7.841.161 1.97.48 3.378 1.092 4.58a11.494 11.494 0 0 0 5.025 5.025c1.201.612 2.61.931 4.58 1.092 1.976.161 4.473.162 7.841.162h45.6c3.368 0 5.865-.001 7.841-.162 1.97-.161 3.378-.48 4.58-1.092a11.49 11.49 0 0 0 5.025-5.025c.612-1.202.931-2.61 1.092-4.58.161-1.976.162-4.473.162-7.841V55.7c0-3.368-.001-5.865-.162-7.84-.161-1.97-.48-3.38-1.092-4.58a11.494 11.494 0 0 0-5.025-5.026c-1.202-.612-2.61-.93-4.58-1.092-1.976-.161-4.473-.162-7.841-.162H55.7Zm24.9 67.01a.5.5 0 0 1 0 .98l-.1.01h-24a.5.5 0 0 1 0-1h24l.1.01ZM39.7 21c-3.368 0-5.865 0-7.84.162-1.97.161-3.38.48-4.58 1.092a11.499 11.499 0 0 0-5.026 5.025c-.612 1.201-.93 2.61-1.092 4.58C21.001 33.835 21 36.332 21 39.7v48.8l.007 2.47c.02 2.15.094 3.422.385 4.507a11.5 11.5 0 0 0 8.131 8.131c1.085.291 2.357.366 4.507.385l1.975.005C36 103.161 36 102.264 36 101.3V55.7c0-3.352 0-5.897.165-7.923.166-2.031.502-3.586 1.197-4.952a12.501 12.501 0 0 1 5.463-5.463c1.366-.696 2.92-1.03 4.952-1.197C49.803 35.999 52.348 36 55.7 36h45.6c.963 0 1.86.001 2.697.005-.003-3.537-.04-5.33-.479-6.8a11.502 11.502 0 0 0-7.722-7.723C94.2 21.005 92.226 21 88.059 21H39.7Zm60.901 67.01a.5.5 0 0 1 0 .98l-.101.01h-44a.5.5 0 0 1 0-1h44l.101.01ZM66.1 56c1.111 0 1.976 0 2.668.057.698.057 1.265.173 1.775.433a4.502 4.502 0 0 1 1.967 1.967c.26.51.376 1.078.433 1.775C73 60.925 73 61.79 73 62.9v3.2c0 1.111 0 1.976-.057 2.668-.057.698-.173 1.265-.433 1.775a4.502 4.502 0 0 1-1.967 1.967c-.51.26-1.078.376-1.775.433C68.076 73 67.21 73 66.1 73h-3.2c-1.111 0-1.975 0-2.668-.057-.697-.057-1.265-.173-1.775-.433a4.502 4.502 0 0 1-1.967-1.967c-.26-.51-.376-1.078-.433-1.775C56 68.076 56 67.21 56 66.1v-3.2c0-1.111 0-1.975.057-2.668.057-.697.173-1.265.433-1.775a4.502 4.502 0 0 1 1.967-1.967c.51-.26 1.078-.376 1.775-.433C60.925 56 61.79 56 62.9 56h3.2Zm-3.2 1c-1.128 0-1.945 0-2.587.053-.636.052-1.056.153-1.402.329a3.5 3.5 0 0 0-1.53 1.53c-.175.345-.276.765-.328 1.401C57 60.956 57 61.773 57 62.9v3.2c0 1.128 0 1.945.053 2.587.052.636.153 1.056.329 1.402a3.5 3.5 0 0 0 1.53 1.53c.345.175.765.276 1.401.328.642.053 1.459.053 2.587.053h3.2c1.128 0 1.945 0 2.587-.053.636-.052 1.056-.153 1.402-.329a3.5 3.5 0 0 0 1.53-1.53c.175-.345.276-.765.328-1.401C72 68.044 72 67.227 72 66.1v-3.2c0-1.128 0-1.945-.053-2.587-.052-.636-.153-1.056-.329-1.402a3.5 3.5 0 0 0-1.53-1.53c-.345-.175-.765-.276-1.401-.328C68.044 57 67.227 57 66.1 57h-3.2Z" opacity=".2"></path><g fill="#EEEFF1" opacity=".1"><path d="M4 4h1v1H4zM12 4h1v1h-1zM20 4h1v1h-1zM28 4h1v1h-1zM36 4h1v1h-1zM44 4h1v1h-1zM52 4h1v1h-1zM60 4h1v1h-1zM68 4h1v1h-1zM76 4h1v1h-1zM84 4h1v1h-1zM92 4h1v1h-1zM100 4h1v1h-1zM108 4h1v1h-1zM116 4h1v1h-1zM124 4h1v1h-1zM132 4h1v1h-1zM4 12h1v1H4zM12 12h1v1h-1zM20 12h1v1h-1zM28 12h1v1h-1zM36 12h1v1h-1zM44 12h1v1h-1zM52 12h1v1h-1zM60 12h1v1h-1zM68 12h1v1h-1zM76 12h1v1h-1zM84 12h1v1h-1zM92 12h1v1h-1zM100 12h1v1h-1zM108 12h1v1h-1zM116 12h1v1h-1zM124 12h1v1h-1zM132 12h1v1h-1zM4 20h1v1H4zM12 20h1v1h-1zM20 20h1v1h-1zM28 20h1v1h-1zM36 20h1v1h-1zM44 20h1v1h-1zM52 20h1v1h-1zM60 20h1v1h-1zM68 20h1v1h-1zM76 20h1v1h-1zM84 20h1v1h-1zM92 20h1v1h-1zM100 20h1v1h-1zM108 20h1v1h-1zM116 20h1v1h-1zM124 20h1v1h-1zM132 20h1v1h-1zM4 28h1v1H4zM12 28h1v1h-1zM20 28h1v1h-1zM28 28h1v1h-1zM36 28h1v1h-1zM44 28h1v1h-1zM52 28h1v1h-1zM60 28h1v1h-1zM68 28h1v1h-1zM76 28h1v1h-1zM84 28h1v1h-1zM92 28h1v1h-1zM100 28h1v1h-1zM108 28h1v1h-1zM116 28h1v1h-1zM124 28h1v1h-1zM132 28h1v1h-1zM4 36h1v1H4zM12 36h1v1h-1zM20 36h1v1h-1zM28 36h1v1h-1zM36 36h1v1h-1zM44 36h1v1h-1zM52 36h1v1h-1zM60 36h1v1h-1zM68 36h1v1h-1zM76 36h1v1h-1zM84 36h1v1h-1zM92 36h1v1h-1zM100 36h1v1h-1zM108 36h1v1h-1zM116 36h1v1h-1zM124 36h1v1h-1zM132 36h1v1h-1zM4 44h1v1H4zM12 44h1v1h-1zM20 44h1v1h-1zM28 44h1v1h-1zM36 44h1v1h-1zM44 44h1v1h-1zM52 44h1v1h-1zM60 44h1v1h-1zM68 44h1v1h-1zM76 44h1v1h-1zM84 44h1v1h-1zM92 44h1v1h-1zM100 44h1v1h-1zM108 44h1v1h-1zM116 44h1v1h-1zM124 44h1v1h-1zM132 44h1v1h-1zM4 52h1v1H4zM12 52h1v1h-1zM20 52h1v1h-1zM28 52h1v1h-1zM36 52h1v1h-1zM44 52h1v1h-1zM52 52h1v1h-1zM60 52h1v1h-1zM68 52h1v1h-1zM76 52h1v1h-1zM84 52h1v1h-1zM92 52h1v1h-1zM100 52h1v1h-1zM108 52h1v1h-1zM116 52h1v1h-1zM124 52h1v1h-1zM132 52h1v1h-1zM4 60h1v1H4zM12 60h1v1h-1zM20 60h1v1h-1zM28 60h1v1h-1zM36 60h1v1h-1zM44 60h1v1h-1zM52 60h1v1h-1zM60 60h1v1h-1zM68 60h1v1h-1zM76 60h1v1h-1zM84 60h1v1h-1zM92 60h1v1h-1zM100 60h1v1h-1zM108 60h1v1h-1zM116 60h1v1h-1zM124 60h1v1h-1zM132 60h1v1h-1zM4 68h1v1H4zM12 68h1v1h-1zM20 68h1v1h-1zM28 68h1v1h-1zM36 68h1v1h-1zM44 68h1v1h-1zM52 68h1v1h-1zM60 68h1v1h-1zM68 68h1v1h-1zM76 68h1v1h-1zM84 68h1v1h-1zM92 68h1v1h-1zM100 68h1v1h-1zM108 68h1v1h-1zM116 68h1v1h-1zM124 68h1v1h-1zM132 68h1v1h-1zM4 76h1v1H4zM12 76h1v1h-1zM20 76h1v1h-1zM28 76h1v1h-1zM36 76h1v1h-1zM44 76h1v1h-1zM52 76h1v1h-1zM60 76h1v1h-1zM68 76h1v1h-1zM76 76h1v1h-1zM84 76h1v1h-1zM92 76h1v1h-1zM100 76h1v1h-1zM108 76h1v1h-1zM116 76h1v1h-1zM124 76h1v1h-1zM132 76h1v1h-1zM4 84h1v1H4zM12 84h1v1h-1zM20 84h1v1h-1zM28 84h1v1h-1zM36 84h1v1h-1zM44 84h1v1h-1zM52 84h1v1h-1zM60 84h1v1h-1zM68 84h1v1h-1zM76 84h1v1h-1zM84 84h1v1h-1zM92 84h1v1h-1zM100 84h1v1h-1zM108 84h1v1h-1zM116 84h1v1h-1zM124 84h1v1h-1zM132 84h1v1h-1zM4 92h1v1H4zM12 92h1v1h-1zM20 92h1v1h-1zM28 92h1v1h-1zM36 92h1v1h-1zM44 92h1v1h-1zM52 92h1v1h-1zM60 92h1v1h-1zM68 92h1v1h-1zM76 92h1v1h-1zM84 92h1v1h-1zM92 92h1v1h-1zM100 92h1v1h-1zM108 92h1v1h-1zM116 92h1v1h-1zM124 92h1v1h-1zM132 92h1v1h-1zM4 100h1v1H4zM12 100h1v1h-1zM20 100h1v1h-1zM28 100h1v1h-1zM36 100h1v1h-1zM44 100h1v1h-1zM52 100h1v1h-1zM60 100h1v1h-1zM68 100h1v1h-1zM76 100h1v1h-1zM84 100h1v1h-1zM92 100h1v1h-1zM100 100h1v1h-1zM108 100h1v1h-1zM116 100h1v1h-1zM124 100h1v1h-1zM132 100h1v1h-1zM4 108h1v1H4zM12 108h1v1h-1zM20 108h1v1h-1zM28 108h1v1h-1zM36 108h1v1h-1zM44 108h1v1h-1zM52 108h1v1h-1zM60 108h1v1h-1zM68 108h1v1h-1zM76 108h1v1h-1zM84 108h1v1h-1zM92 108h1v1h-1zM100 108h1v1h-1zM108 108h1v1h-1zM116 108h1v1h-1zM124 108h1v1h-1zM132 108h1v1h-1zM4 116h1v1H4zM12 116h1v1h-1zM20 116h1v1h-1zM28 116h1v1h-1zM36 116h1v1h-1zM44 116h1v1h-1zM52 116h1v1h-1zM60 116h1v1h-1zM68 116h1v1h-1zM76 116h1v1h-1zM84 116h1v1h-1zM92 116h1v1h-1zM100 116h1v1h-1zM108 116h1v1h-1zM116 116h1v1h-1zM124 116h1v1h-1zM132 116h1v1h-1zM4 124h1v1H4zM12 124h1v1h-1zM20 124h1v1h-1zM28 124h1v1h-1zM36 124h1v1h-1zM44 124h1v1h-1zM52 124h1v1h-1zM60 124h1v1h-1zM68 124h1v1h-1zM76 124h1v1h-1zM84 124h1v1h-1zM92 124h1v1h-1zM100 124h1v1h-1zM108 124h1v1h-1zM116 124h1v1h-1zM124 124h1v1h-1zM132 124h1v1h-1zM4 132h1v1H4zM12 132h1v1h-1zM20 132h1v1h-1zM28 132h1v1h-1zM36 132h1v1h-1zM44 132h1v1h-1zM52 132h1v1h-1zM60 132h1v1h-1zM68 132h1v1h-1zM76 132h1v1h-1zM84 132h1v1h-1zM92 132h1v1h-1zM100 132h1v1h-1zM108 132h1v1h-1zM116 132h1v1h-1zM124 132h1v1h-1zM132 132h1v1h-1z"></path></g><g stroke="#EEEFF1" opacity=".1"><path d="M4.5 9V0M9 4.5H0"></path></g><g stroke="#EEEFF1" opacity=".1"><path d="M132.5 9V0M137 4.5h-9"></path></g><g stroke="#EEEFF1" opacity=".1"><path d="M132.5 137v-9M137 132.5h-9"></path></g><g stroke="#EEEFF1" opacity=".1"><path d="M4.5 137v-9M9 132.5H0"></path></g></svg>