<svg width="215" height="140" viewBox="0 0 215 140" fill="none" xmlns="http://www.w3.org/2000/svg"><rect width="215" height="140" fill="#1A1D21"></rect><path d="M64 0L64 140" stroke="#313337" stroke-width="0.8" stroke-miterlimit="10" stroke-dasharray="3 3"></path><path d="M151 0L151 140" stroke="#313337" stroke-width="0.8" stroke-miterlimit="10" stroke-dasharray="3 3"></path><path d="M215 33H0" stroke="#313337" stroke-width="0.8" stroke-miterlimit="10" stroke-dasharray="3 3"></path><path d="M215 108H0" stroke="#313337" stroke-width="0.8" stroke-miterlimit="10" stroke-dasharray="3 3"></path><path d="M215 78H0" stroke="#313337" stroke-width="0.8" stroke-miterlimit="10" stroke-dasharray="3 3"></path><path d="M199 0L199 140" stroke="#313337" stroke-width="0.8" stroke-miterlimit="10"></path><path d="M16 0L16 140" stroke="#313337" stroke-width="0.8" stroke-miterlimit="10"></path><path d="M0 16L215 16" stroke="#313337" stroke-width="0.8" stroke-miterlimit="10"></path><path d="M0 124L215 124" stroke="#313337" stroke-width="0.8" stroke-miterlimit="10"></path><path d="M80.1844 98.0256L83.5 85.5001L151.1 47.8L143.479 92.161L143.479 92.1611C143.196 93.8076 143.055 94.6309 142.616 95.3142C142.177 95.9976 141.487 96.4689 140.108 97.4115L126.844 106.475C125.932 107.099 125.476 107.411 124.952 107.541C124.427 107.671 123.878 107.608 122.781 107.483L83.5989 103.024C81.4599 102.78 80.3903 102.658 79.8742 101.903C79.3581 101.147 79.6335 100.107 80.1844 98.0256Z" fill="#1A1D21" stroke="#86888D" stroke-linecap="round" stroke-linejoin="round"></path><path opacity="0.6" d="M124.5 107.5L126.668 93.1906C126.846 92.0187 127.998 91.2575 129.145 91.5536L142.5 95" stroke="#86888D" stroke-width="0.6" stroke-linecap="round" stroke-linejoin="round"></path><path d="M66.6779 75.7296L65.0846 77.0805C64.4541 77.615 64.3407 78.4878 65.0423 78.9248C70.5937 82.3826 95.1439 87.9081 109.21 90.3713C111.626 90.7943 114.085 90.1148 115.985 88.5646C126.61 79.8974 135.97 69.7873 143.794 58.5279L150.831 48.4013C151.634 47.246 151.025 45.6449 149.657 45.3156L99.7934 33.3114C99.0431 33.1307 98.2704 33.5092 97.9531 34.2127C90.7417 50.2032 80.0577 64.3858 66.6779 75.7296Z" fill="#1A1D21"></path><path d="M65.0846 77.0805L64.7612 76.6991H64.7612L65.0846 77.0805ZM66.6779 75.7296L67.0013 76.111H67.0013L66.6779 75.7296ZM99.7934 33.3114L99.6763 33.7975L99.7934 33.3114ZM149.657 45.3156L149.54 45.8017L149.657 45.3156ZM150.831 48.4013L150.421 48.116L150.831 48.4013ZM143.794 58.5279L143.384 58.2426L143.794 58.5279ZM109.21 90.3713L109.296 89.8788L109.21 90.3713ZM65.0423 78.9248L65.3066 78.5004L65.3066 78.5004L65.0423 78.9248ZM115.985 88.5646L116.301 88.9521L115.985 88.5646ZM97.9531 34.2127L98.4089 34.4182V34.4182L97.9531 34.2127ZM65.4079 77.4618L67.0013 76.111L66.3546 75.3482L64.7612 76.6991L65.4079 77.4618ZM99.6763 33.7975L149.54 45.8017L149.774 44.8295L99.9104 32.8253L99.6763 33.7975ZM150.421 48.116L143.384 58.2426L144.205 58.8132L151.242 48.6867L150.421 48.116ZM109.296 89.8788C102.274 88.6491 92.6313 86.6543 84.053 84.5356C79.7637 83.4762 75.7461 82.3872 72.458 81.3489C69.1534 80.3053 66.6345 79.3274 65.3066 78.5004L64.778 79.3492C66.2258 80.251 68.8574 81.2605 72.1569 82.3024C75.4729 83.3496 79.5129 84.4443 83.8132 85.5064C92.4144 87.6307 102.08 89.6303 109.124 90.8638L109.296 89.8788ZM115.669 88.1772C113.877 89.6391 111.563 90.2758 109.296 89.8788L109.124 90.8638C111.688 91.3128 114.293 90.5905 116.301 88.9521L115.669 88.1772ZM143.384 58.2426C135.586 69.4637 126.257 79.5395 115.669 88.1772L116.301 88.9521C126.962 80.2554 136.354 70.1109 144.205 58.8132L143.384 58.2426ZM149.54 45.8017C150.566 46.0486 151.023 47.2495 150.421 48.116L151.242 48.6867C152.245 47.2425 151.484 45.2411 149.774 44.8295L149.54 45.8017ZM98.4089 34.4182C98.6274 33.9337 99.1596 33.6731 99.6763 33.7975L99.9104 32.8253C98.9265 32.5884 97.9133 33.0847 97.4973 34.0071L98.4089 34.4182ZM67.0013 76.111C80.4377 64.7192 91.167 50.4764 98.4089 34.4182L97.4973 34.0071C90.3165 49.9299 79.6777 64.0525 66.3546 75.3482L67.0013 76.111ZM64.7612 76.6991C64.36 77.0393 64.0933 77.5119 64.0647 78.0106C64.0349 78.5311 64.2705 79.0331 64.778 79.3492L65.3066 78.5004C65.1125 78.3795 65.054 78.2266 65.0631 78.0678C65.0735 77.8872 65.1787 77.6562 65.4079 77.4618L64.7612 76.6991Z" fill="#86888D"></path><path opacity="0.6" d="M134.273 49.7612L132.93 46.5786L136.472 46.4186L135.2 49.7454C135.04 50.1663 134.448 50.1764 134.273 49.7612Z" fill="#1A1D21" stroke="#86888D" stroke-width="0.6" stroke-linecap="round" stroke-linejoin="round"></path><path d="M134.5 34C131.462 34 129 35.3431 129 37C129 37.1704 129.026 37.3374 129.076 37.5L130.885 41.731C130.96 41.9067 130.983 42.1001 130.952 42.2885L130.541 44.7551C130.514 44.9181 130.492 45.0846 130.523 45.247C130.751 46.4548 132.668 47 135 47C137.137 47 138.926 46.1723 139.386 45.0624C139.532 44.7098 139.427 44.3179 139.285 43.9636L138.633 42.3321C138.547 42.1174 138.538 41.8795 138.608 41.659L139.924 37.5C139.974 37.3374 140 37.1704 140 37C140 35.3431 137.538 34 134.5 34Z" fill="#1A1D21" stroke="#86888D" stroke-linecap="round" stroke-linejoin="round"></path><path opacity="0.6" d="M129.076 37.5C129.512 38.9189 131.775 40 134.5 40C137.225 40 139.487 38.9189 139.924 37.5" stroke="#86888D" stroke-width="0.6" stroke-linecap="round" stroke-linejoin="round"></path></svg>