<svg width="215" height="140" viewBox="0 0 215 140" fill="none" xmlns="http://www.w3.org/2000/svg"><rect width="215" height="140" fill="#1A1D21"></rect><path d="M64 0L64 140" stroke="#313337" stroke-width="0.8" stroke-miterlimit="10" stroke-dasharray="3 3"></path><path d="M151 0L151 140" stroke="#313337" stroke-width="0.8" stroke-miterlimit="10" stroke-dasharray="3 3"></path><path d="M215 24H0" stroke="#313337" stroke-width="0.8" stroke-miterlimit="10" stroke-dasharray="3 3"></path><path d="M215 50H0" stroke="#313337" stroke-width="0.8" stroke-miterlimit="10" stroke-dasharray="3 3"></path><path d="M215 88H0" stroke="#313337" stroke-width="0.8" stroke-miterlimit="10" stroke-dasharray="3 3"></path><path d="M215 114H0" stroke="#313337" stroke-width="0.8" stroke-miterlimit="10" stroke-dasharray="3 3"></path><path d="M199 0L199 140" stroke="#313337" stroke-width="0.8" stroke-miterlimit="10"></path><path d="M16 0L16 140" stroke="#313337" stroke-width="0.8" stroke-miterlimit="10"></path><path d="M0 16L215 16" stroke="#313337" stroke-width="0.8" stroke-miterlimit="10"></path><path d="M0 124L215 124" stroke="#313337" stroke-width="0.8" stroke-miterlimit="10"></path><path opacity="0.6" d="M84.8694 59.4424L85.478 60.2017C85.6006 60.3546 85.8825 60.1944 86.0082 59.9004L87.3916 56.6623" stroke="#86888D" stroke-width="0.6" stroke-linecap="round" stroke-linejoin="round"></path><rect opacity="0.6" width="27.6679" height="3.64051" rx="1.4562" transform="matrix(0.866025 -0.5 0 1 92.4358 52.8397)" stroke="#86888D" stroke-width="0.6" stroke-linecap="round" stroke-linejoin="round"></rect><rect opacity="0.6" width="27.6679" height="3.64051" rx="1.4562" transform="matrix(0.866025 -0.5 0 1 92.4358 65.9456)" stroke="#86888D" stroke-width="0.6" stroke-linecap="round" stroke-linejoin="round"></rect><rect opacity="0.6" width="27.6679" height="3.64051" rx="1.4562" transform="matrix(0.866025 -0.5 0 1 92.4358 79.0514)" stroke="#86888D" stroke-width="0.6" stroke-linecap="round" stroke-linejoin="round"></rect><rect opacity="0.6" width="27.6679" height="3.64051" rx="1.4562" transform="matrix(0.866025 -0.5 0 1 92.4358 92.1572)" stroke="#86888D" stroke-width="0.6" stroke-linecap="round" stroke-linejoin="round"></rect><path d="M131.785 26.7744C131.722 26.6683 131.64 26.5872 131.542 26.5334L129.019 25.0772C128.929 25.0276 128.825 25.0013 128.711 25C128.442 24.9971 128.088 25.201 127.382 25.6087L86.0178 49.4905C85.3115 49.8983 84.9583 50.1021 84.6886 50.4166C84.4513 50.6932 84.2584 51.0274 84.1375 51.3712C84 51.762 84 52.1698 84 52.9854V110.942C84 111.758 84 112.166 84.1375 112.398C84.2003 112.504 84.2827 112.585 84.3806 112.639L86.9028 114.095C86.9932 114.145 87.0969 114.171 87.2108 114.172C87.4806 114.175 87.8337 113.971 88.54 113.563L129.904 89.6817L129.904 89.6817C130.611 89.2739 130.964 89.07 131.234 88.7556C131.471 88.479 131.664 88.1448 131.785 87.801C131.922 87.4102 131.922 87.0023 131.922 86.1868V28.2298C131.922 27.4143 131.922 27.0066 131.785 26.7744Z" fill="#1A1D21"></path><path d="M84.5 50.5L87.2503 52.1313M131.581 26.7054C131.491 26.6558 131.387 26.6295 131.273 26.6282C131.003 26.6252 130.65 26.8291 129.944 27.2369L87.2502 52.0448L87.2503 114" stroke="#5C5E63" stroke-width="0.6" stroke-linecap="round" stroke-linejoin="round"></path><path d="M131.785 26.7744C131.722 26.6683 131.64 26.5872 131.542 26.5334L129.019 25.0772C128.929 25.0276 128.825 25.0013 128.711 25C128.442 24.9971 128.088 25.201 127.382 25.6087L86.0178 49.4905C85.3115 49.8983 84.9583 50.1021 84.6886 50.4166C84.4513 50.6932 84.2584 51.0274 84.1375 51.3712C84 51.762 84 52.1698 84 52.9854V110.942C84 111.758 84 112.166 84.1375 112.398C84.2003 112.504 84.2827 112.585 84.3806 112.639L86.9028 114.095C86.9932 114.145 87.0969 114.171 87.2108 114.172C87.4806 114.175 87.8337 113.971 88.54 113.563L129.904 89.6817C130.611 89.2739 130.964 89.07 131.234 88.7556C131.471 88.479 131.664 88.1448 131.785 87.801C131.922 87.4102 131.922 87.0023 131.922 86.1868V28.2298C131.922 27.4143 131.922 27.0066 131.785 26.7744Z" stroke="#86888D" stroke-linecap="round" stroke-linejoin="round"></path><rect opacity="0.6" width="8.73723" height="8.73723" rx="4.36861" transform="matrix(0.866025 -0.5 0 1 92.3472 56.4802)" stroke="#86888D" stroke-width="0.6" stroke-linecap="round" stroke-linejoin="round"></rect><path opacity="0.6" d="M94.8694 59.4422L95.478 60.2015C95.6006 60.3545 95.8825 60.1943 96.0082 59.9002L97.3916 56.6622" stroke="#86888D" stroke-width="0.6" stroke-linecap="round" stroke-linejoin="round"></path><rect opacity="0.6" width="8.73723" height="8.73723" rx="4.36861" transform="matrix(0.866025 -0.5 0 1 92.3472 69.5861)" stroke="#86888D" stroke-width="0.6" stroke-linecap="round" stroke-linejoin="round"></rect><rect opacity="0.6" width="8.73723" height="8.73723" rx="4.36861" transform="matrix(0.866025 -0.5 0 1 92.3472 82.6919)" stroke="#86888D" stroke-width="0.6" stroke-linecap="round" stroke-linejoin="round"></rect><rect opacity="0.6" width="8.73723" height="8.73723" rx="4.36861" transform="matrix(0.866025 -0.5 0 1 92.3472 95.7977)" stroke="#86888D" stroke-width="0.6" stroke-linecap="round" stroke-linejoin="round"></rect><rect opacity="0.6" width="27.6679" height="3.64051" rx="1.4562" transform="matrix(0.866025 -0.5 0 1 102.436 52.8397)" stroke="#86888D" stroke-width="0.6" stroke-linecap="round" stroke-linejoin="round"></rect><rect opacity="0.6" width="27.6679" height="3.64051" rx="1.4562" transform="matrix(0.866025 -0.5 0 1 102.436 65.9456)" stroke="#86888D" stroke-width="0.6" stroke-linecap="round" stroke-linejoin="round"></rect><rect opacity="0.6" width="27.6679" height="3.64051" rx="1.4562" transform="matrix(0.866025 -0.5 0 1 102.436 79.0514)" stroke="#86888D" stroke-width="0.6" stroke-linecap="round" stroke-linejoin="round"></rect><rect opacity="0.6" width="27.6679" height="3.64051" rx="1.4562" transform="matrix(0.866025 -0.5 0 1 102.436 92.1572)" stroke="#86888D" stroke-width="0.6" stroke-linecap="round" stroke-linejoin="round"></rect><path d="M113.691 31.9671C112.967 32.3853 112.314 32.4098 111.854 32.1107C111.429 31.8347 111.169 31.283 111.169 30.5109C111.169 29.4654 110.787 28.7432 110.176 28.4321C109.612 28.1449 108.852 28.2081 108.016 28.6906C106.275 29.6959 104.863 32.1408 104.863 34.1514C104.863 35.7599 103.734 37.7158 102.341 38.52L99.1884 40.3403C97.0989 41.5466 95.405 44.4805 95.405 46.8932C95.405 47.0862 95.4701 47.2241 95.5762 47.2931L95.6036 47.3089C95.5942 47.3042 95.5851 47.2989 95.5762 47.2931L93.0814 45.8527C92.9591 45.7905 92.8828 45.6461 92.8828 45.437C92.8828 43.0243 94.5767 40.0904 96.6661 38.8841L99.8189 37.0638C101.212 36.2596 102.341 34.3037 102.341 32.6952C102.341 30.6846 103.753 28.2397 105.494 27.2344C106.33 26.7519 107.09 26.6887 107.654 26.9759L110.176 28.432C110.176 28.432 110.176 28.4321 110.176 28.4321C110.787 28.7432 111.169 29.4654 111.169 30.5109L114.322 28.6906C115.325 28.1116 116.236 28.0358 116.913 28.3804L119.436 29.8365C119.436 29.8365 119.436 29.8365 119.436 29.8366C118.759 29.492 117.847 29.5678 116.844 30.1468L113.691 31.9671Z" fill="#1A1D21"></path><path fill-rule="evenodd" clip-rule="evenodd" d="M104.837 33.9029C104.837 31.8923 106.249 29.4474 107.99 28.4421C109.731 27.4368 111.143 28.2518 111.143 30.2623C111.143 31.8708 112.272 32.5228 113.665 31.7186L116.818 29.8983C118.907 28.6919 120.601 29.6699 120.601 32.0826C120.601 32.4847 120.319 32.9737 119.971 33.1747L96.0095 47.0087C95.6612 47.2097 95.3789 47.0468 95.3789 46.6446C95.3789 44.2319 97.0728 41.2981 99.1622 40.0917L102.315 38.2715C103.708 37.4672 104.837 35.5113 104.837 33.9029ZM107.99 33.5388C108.686 33.1367 109.251 32.1587 109.251 31.3545C109.251 30.5503 108.686 30.2243 107.99 30.6264C107.294 31.0285 106.729 32.0065 106.729 32.8107C106.729 33.6149 107.294 33.9409 107.99 33.5388Z" fill="#1A1D21"></path><path d="M111.828 31.8622C112.288 32.1612 112.941 32.1368 113.665 31.7186M113.665 31.7186L116.818 29.8983M113.665 31.7186C112.272 32.5228 111.143 31.8708 111.143 30.2623M116.818 29.8983C117.821 29.3192 118.733 29.2435 119.41 29.588L116.887 28.1318C116.21 27.7873 115.299 27.863 114.296 28.4421L111.143 30.2623M116.818 29.8983C118.907 28.6919 120.601 29.6699 120.601 32.0826C120.601 32.4847 120.319 32.9737 119.971 33.1747L96.0095 47.0087C95.6612 47.2097 95.3789 47.0468 95.3789 46.6446M111.143 30.2623C111.143 28.2518 109.731 27.4368 107.99 28.4421M95.3789 46.6446C95.3789 46.8538 95.4552 46.9982 95.5775 47.0604L93.0553 45.6042C92.933 45.542 92.8567 45.3976 92.8567 45.1884C92.8567 42.7757 94.5505 39.8419 96.64 38.6355L99.7928 36.8153C101.186 36.011 102.315 34.0551 102.315 32.4467C102.315 30.4361 103.727 27.9912 105.468 26.9859C106.304 26.5033 107.063 26.4402 107.628 26.7273L110.15 28.1836C109.586 27.8964 108.826 27.9596 107.99 28.4421M95.3789 46.6446C95.3789 44.2319 97.0728 41.2981 99.1622 40.0917L102.315 38.2715C103.708 37.4672 104.837 35.5113 104.837 33.9029C104.837 31.8923 106.249 29.4474 107.99 28.4421M109.251 31.3545C109.251 32.1587 108.686 33.1367 107.99 33.5388C107.294 33.9409 106.729 33.6149 106.729 32.8107C106.729 32.0065 107.294 31.0285 107.99 30.6264C108.686 30.2243 109.251 30.5503 109.251 31.3545Z" stroke="#5C5E63" stroke-width="0.6" stroke-linecap="round" stroke-linejoin="round"></path></svg>