<svg width="138" height="138" viewBox="0 0 138 138" fill="none" xmlns="http://www.w3.org/2000/svg"><g opacity="0.1"><rect x="4" y="4" width="1" height="1" fill="#EEEFF1"></rect><rect x="12" y="4" width="1" height="1" fill="#EEEFF1"></rect><rect x="20" y="4" width="1" height="1" fill="#EEEFF1"></rect><rect x="28" y="4" width="1" height="1" fill="#EEEFF1"></rect><rect x="36" y="4" width="1" height="1" fill="#EEEFF1"></rect><rect x="44" y="4" width="1" height="1" fill="#EEEFF1"></rect><rect x="52" y="4" width="1" height="1" fill="#EEEFF1"></rect><rect x="60" y="4" width="1" height="1" fill="#EEEFF1"></rect><rect x="68" y="4" width="1" height="1" fill="#EEEFF1"></rect><rect x="76" y="4" width="1" height="1" fill="#EEEFF1"></rect><rect x="84" y="4" width="1" height="1" fill="#EEEFF1"></rect><rect x="92" y="4" width="1" height="1" fill="#EEEFF1"></rect><rect x="100" y="4" width="1" height="1" fill="#EEEFF1"></rect><rect x="108" y="4" width="1" height="1" fill="#EEEFF1"></rect><rect x="116" y="4" width="1" height="1" fill="#EEEFF1"></rect><rect x="124" y="4" width="1" height="1" fill="#EEEFF1"></rect><rect x="132" y="4" width="1" height="1" fill="#EEEFF1"></rect><rect x="4" y="12" width="1" height="1" fill="#EEEFF1"></rect><rect x="12" y="12" width="1" height="1" fill="#EEEFF1"></rect><rect x="20" y="12" width="1" height="1" fill="#EEEFF1"></rect><rect x="28" y="12" width="1" height="1" fill="#EEEFF1"></rect><rect x="36" y="12" width="1" height="1" fill="#EEEFF1"></rect><rect x="44" y="12" width="1" height="1" fill="#EEEFF1"></rect><rect x="52" y="12" width="1" height="1" fill="#EEEFF1"></rect><rect x="60" y="12" width="1" height="1" fill="#EEEFF1"></rect><rect x="68" y="12" width="1" height="1" fill="#EEEFF1"></rect><rect x="76" y="12" width="1" height="1" fill="#EEEFF1"></rect><rect x="84" y="12" width="1" height="1" fill="#EEEFF1"></rect><rect x="92" y="12" width="1" height="1" fill="#EEEFF1"></rect><rect x="100" y="12" width="1" height="1" fill="#EEEFF1"></rect><rect x="108" y="12" width="1" height="1" fill="#EEEFF1"></rect><rect x="116" y="12" width="1" height="1" fill="#EEEFF1"></rect><rect x="124" y="12" width="1" height="1" fill="#EEEFF1"></rect><rect x="132" y="12" width="1" height="1" fill="#EEEFF1"></rect><rect x="4" y="20" width="1" height="1" fill="#EEEFF1"></rect><rect x="12" y="20" width="1" height="1" fill="#EEEFF1"></rect><rect x="20" y="20" width="1" height="1" fill="#EEEFF1"></rect><rect x="28" y="20" width="1" height="1" fill="#EEEFF1"></rect><rect x="36" y="20" width="1" height="1" fill="#EEEFF1"></rect><rect x="44" y="20" width="1" height="1" fill="#EEEFF1"></rect><rect x="52" y="20" width="1" height="1" fill="#EEEFF1"></rect><rect x="60" y="20" width="1" height="1" fill="#EEEFF1"></rect><rect x="68" y="20" width="1" height="1" fill="#EEEFF1"></rect><rect x="76" y="20" width="1" height="1" fill="#EEEFF1"></rect><rect x="84" y="20" width="1" height="1" fill="#EEEFF1"></rect><rect x="92" y="20" width="1" height="1" fill="#EEEFF1"></rect><rect x="100" y="20" width="1" height="1" fill="#EEEFF1"></rect><rect x="108" y="20" width="1" height="1" fill="#EEEFF1"></rect><rect x="116" y="20" width="1" height="1" fill="#EEEFF1"></rect><rect x="124" y="20" width="1" height="1" fill="#EEEFF1"></rect><rect x="132" y="20" width="1" height="1" fill="#EEEFF1"></rect><rect x="4" y="28" width="1" height="1" fill="#EEEFF1"></rect><rect x="12" y="28" width="1" height="1" fill="#EEEFF1"></rect><rect x="20" y="28" width="1" height="1" fill="#EEEFF1"></rect><rect x="28" y="28" width="1" height="1" fill="#EEEFF1"></rect><rect x="36" y="28" width="1" height="1" fill="#EEEFF1"></rect><rect x="44" y="28" width="1" height="1" fill="#EEEFF1"></rect><rect x="52" y="28" width="1" height="1" fill="#EEEFF1"></rect><rect x="60" y="28" width="1" height="1" fill="#EEEFF1"></rect><rect x="68" y="28" width="1" height="1" fill="#EEEFF1"></rect><rect x="76" y="28" width="1" height="1" fill="#EEEFF1"></rect><rect x="84" y="28" width="1" height="1" fill="#EEEFF1"></rect><rect x="92" y="28" width="1" height="1" fill="#EEEFF1"></rect><rect x="100" y="28" width="1" height="1" fill="#EEEFF1"></rect><rect x="108" y="28" width="1" height="1" fill="#EEEFF1"></rect><rect x="116" y="28" width="1" height="1" fill="#EEEFF1"></rect><rect x="124" y="28" width="1" height="1" fill="#EEEFF1"></rect><rect x="132" y="28" width="1" height="1" fill="#EEEFF1"></rect><rect x="4" y="36" width="1" height="1" fill="#EEEFF1"></rect><rect x="12" y="36" width="1" height="1" fill="#EEEFF1"></rect><rect x="20" y="36" width="1" height="1" fill="#EEEFF1"></rect><rect x="28" y="36" width="1" height="1" fill="#EEEFF1"></rect><rect x="36" y="36" width="1" height="1" fill="#EEEFF1"></rect><rect x="44" y="36" width="1" height="1" fill="#EEEFF1"></rect><rect x="52" y="36" width="1" height="1" fill="#EEEFF1"></rect><rect x="60" y="36" width="1" height="1" fill="#EEEFF1"></rect><rect x="68" y="36" width="1" height="1" fill="#EEEFF1"></rect><rect x="76" y="36" width="1" height="1" fill="#EEEFF1"></rect><rect x="84" y="36" width="1" height="1" fill="#EEEFF1"></rect><rect x="92" y="36" width="1" height="1" fill="#EEEFF1"></rect><rect x="100" y="36" width="1" height="1" fill="#EEEFF1"></rect><rect x="108" y="36" width="1" height="1" fill="#EEEFF1"></rect><rect x="116" y="36" width="1" height="1" fill="#EEEFF1"></rect><rect x="124" y="36" width="1" height="1" fill="#EEEFF1"></rect><rect x="132" y="36" width="1" height="1" fill="#EEEFF1"></rect><rect x="4" y="44" width="1" height="1" fill="#EEEFF1"></rect><rect x="12" y="44" width="1" height="1" fill="#EEEFF1"></rect><rect x="20" y="44" width="1" height="1" fill="#EEEFF1"></rect><rect x="28" y="44" width="1" height="1" fill="#EEEFF1"></rect><rect x="36" y="44" width="1" height="1" fill="#EEEFF1"></rect><rect x="44" y="44" width="1" height="1" fill="#EEEFF1"></rect><rect x="52" y="44" width="1" height="1" fill="#EEEFF1"></rect><rect x="60" y="44" width="1" height="1" fill="#EEEFF1"></rect><rect x="68" y="44" width="1" height="1" fill="#EEEFF1"></rect><rect x="76" y="44" width="1" height="1" fill="#EEEFF1"></rect><rect x="84" y="44" width="1" height="1" fill="#EEEFF1"></rect><rect x="92" y="44" width="1" height="1" fill="#EEEFF1"></rect><rect x="100" y="44" width="1" height="1" fill="#EEEFF1"></rect><rect x="108" y="44" width="1" height="1" fill="#EEEFF1"></rect><rect x="116" y="44" width="1" height="1" fill="#EEEFF1"></rect><rect x="124" y="44" width="1" height="1" fill="#EEEFF1"></rect><rect x="132" y="44" width="1" height="1" fill="#EEEFF1"></rect><rect x="4" y="52" width="1" height="1" fill="#EEEFF1"></rect><rect x="12" y="52" width="1" height="1" fill="#EEEFF1"></rect><rect x="20" y="52" width="1" height="1" fill="#EEEFF1"></rect><rect x="28" y="52" width="1" height="1" fill="#EEEFF1"></rect><rect x="36" y="52" width="1" height="1" fill="#EEEFF1"></rect><rect x="44" y="52" width="1" height="1" fill="#EEEFF1"></rect><rect x="52" y="52" width="1" height="1" fill="#EEEFF1"></rect><rect x="60" y="52" width="1" height="1" fill="#EEEFF1"></rect><rect x="68" y="52" width="1" height="1" fill="#EEEFF1"></rect><rect x="76" y="52" width="1" height="1" fill="#EEEFF1"></rect><rect x="84" y="52" width="1" height="1" fill="#EEEFF1"></rect><rect x="92" y="52" width="1" height="1" fill="#EEEFF1"></rect><rect x="100" y="52" width="1" height="1" fill="#EEEFF1"></rect><rect x="108" y="52" width="1" height="1" fill="#EEEFF1"></rect><rect x="116" y="52" width="1" height="1" fill="#EEEFF1"></rect><rect x="124" y="52" width="1" height="1" fill="#EEEFF1"></rect><rect x="132" y="52" width="1" height="1" fill="#EEEFF1"></rect><rect x="4" y="60" width="1" height="1" fill="#EEEFF1"></rect><rect x="12" y="60" width="1" height="1" fill="#EEEFF1"></rect><rect x="20" y="60" width="1" height="1" fill="#EEEFF1"></rect><rect x="28" y="60" width="1" height="1" fill="#EEEFF1"></rect><rect x="36" y="60" width="1" height="1" fill="#EEEFF1"></rect><rect x="44" y="60" width="1" height="1" fill="#EEEFF1"></rect><rect x="52" y="60" width="1" height="1" fill="#EEEFF1"></rect><rect x="60" y="60" width="1" height="1" fill="#EEEFF1"></rect><rect x="68" y="60" width="1" height="1" fill="#EEEFF1"></rect><rect x="76" y="60" width="1" height="1" fill="#EEEFF1"></rect><rect x="84" y="60" width="1" height="1" fill="#EEEFF1"></rect><rect x="92" y="60" width="1" height="1" fill="#EEEFF1"></rect><rect x="100" y="60" width="1" height="1" fill="#EEEFF1"></rect><rect x="108" y="60" width="1" height="1" fill="#EEEFF1"></rect><rect x="116" y="60" width="1" height="1" fill="#EEEFF1"></rect><rect x="124" y="60" width="1" height="1" fill="#EEEFF1"></rect><rect x="132" y="60" width="1" height="1" fill="#EEEFF1"></rect><rect x="4" y="68" width="1" height="1" fill="#EEEFF1"></rect><rect x="12" y="68" width="1" height="1" fill="#EEEFF1"></rect><rect x="20" y="68" width="1" height="1" fill="#EEEFF1"></rect><rect x="28" y="68" width="1" height="1" fill="#EEEFF1"></rect><rect x="36" y="68" width="1" height="1" fill="#EEEFF1"></rect><rect x="44" y="68" width="1" height="1" fill="#EEEFF1"></rect><rect x="52" y="68" width="1" height="1" fill="#EEEFF1"></rect><rect x="60" y="68" width="1" height="1" fill="#EEEFF1"></rect><rect x="68" y="68" width="1" height="1" fill="#EEEFF1"></rect><rect x="76" y="68" width="1" height="1" fill="#EEEFF1"></rect><rect x="84" y="68" width="1" height="1" fill="#EEEFF1"></rect><rect x="92" y="68" width="1" height="1" fill="#EEEFF1"></rect><rect x="100" y="68" width="1" height="1" fill="#EEEFF1"></rect><rect x="108" y="68" width="1" height="1" fill="#EEEFF1"></rect><rect x="116" y="68" width="1" height="1" fill="#EEEFF1"></rect><rect x="124" y="68" width="1" height="1" fill="#EEEFF1"></rect><rect x="132" y="68" width="1" height="1" fill="#EEEFF1"></rect><rect x="4" y="76" width="1" height="1" fill="#EEEFF1"></rect><rect x="12" y="76" width="1" height="1" fill="#EEEFF1"></rect><rect x="20" y="76" width="1" height="1" fill="#EEEFF1"></rect><rect x="28" y="76" width="1" height="1" fill="#EEEFF1"></rect><rect x="36" y="76" width="1" height="1" fill="#EEEFF1"></rect><rect x="44" y="76" width="1" height="1" fill="#EEEFF1"></rect><rect x="52" y="76" width="1" height="1" fill="#EEEFF1"></rect><rect x="60" y="76" width="1" height="1" fill="#EEEFF1"></rect><rect x="68" y="76" width="1" height="1" fill="#EEEFF1"></rect><rect x="76" y="76" width="1" height="1" fill="#EEEFF1"></rect><rect x="84" y="76" width="1" height="1" fill="#EEEFF1"></rect><rect x="92" y="76" width="1" height="1" fill="#EEEFF1"></rect><rect x="100" y="76" width="1" height="1" fill="#EEEFF1"></rect><rect x="108" y="76" width="1" height="1" fill="#EEEFF1"></rect><rect x="116" y="76" width="1" height="1" fill="#EEEFF1"></rect><rect x="124" y="76" width="1" height="1" fill="#EEEFF1"></rect><rect x="132" y="76" width="1" height="1" fill="#EEEFF1"></rect><rect x="4" y="84" width="1" height="1" fill="#EEEFF1"></rect><rect x="12" y="84" width="1" height="1" fill="#EEEFF1"></rect><rect x="20" y="84" width="1" height="1" fill="#EEEFF1"></rect><rect x="28" y="84" width="1" height="1" fill="#EEEFF1"></rect><rect x="36" y="84" width="1" height="1" fill="#EEEFF1"></rect><rect x="44" y="84" width="1" height="1" fill="#EEEFF1"></rect><rect x="52" y="84" width="1" height="1" fill="#EEEFF1"></rect><rect x="60" y="84" width="1" height="1" fill="#EEEFF1"></rect><rect x="68" y="84" width="1" height="1" fill="#EEEFF1"></rect><rect x="76" y="84" width="1" height="1" fill="#EEEFF1"></rect><rect x="84" y="84" width="1" height="1" fill="#EEEFF1"></rect><rect x="92" y="84" width="1" height="1" fill="#EEEFF1"></rect><rect x="100" y="84" width="1" height="1" fill="#EEEFF1"></rect><rect x="108" y="84" width="1" height="1" fill="#EEEFF1"></rect><rect x="116" y="84" width="1" height="1" fill="#EEEFF1"></rect><rect x="124" y="84" width="1" height="1" fill="#EEEFF1"></rect><rect x="132" y="84" width="1" height="1" fill="#EEEFF1"></rect><rect x="4" y="92" width="1" height="1" fill="#EEEFF1"></rect><rect x="12" y="92" width="1" height="1" fill="#EEEFF1"></rect><rect x="20" y="92" width="1" height="1" fill="#EEEFF1"></rect><rect x="28" y="92" width="1" height="1" fill="#EEEFF1"></rect><rect x="36" y="92" width="1" height="1" fill="#EEEFF1"></rect><rect x="44" y="92" width="1" height="1" fill="#EEEFF1"></rect><rect x="52" y="92" width="1" height="1" fill="#EEEFF1"></rect><rect x="60" y="92" width="1" height="1" fill="#EEEFF1"></rect><rect x="68" y="92" width="1" height="1" fill="#EEEFF1"></rect><rect x="76" y="92" width="1" height="1" fill="#EEEFF1"></rect><rect x="84" y="92" width="1" height="1" fill="#EEEFF1"></rect><rect x="92" y="92" width="1" height="1" fill="#EEEFF1"></rect><rect x="100" y="92" width="1" height="1" fill="#EEEFF1"></rect><rect x="108" y="92" width="1" height="1" fill="#EEEFF1"></rect><rect x="116" y="92" width="1" height="1" fill="#EEEFF1"></rect><rect x="124" y="92" width="1" height="1" fill="#EEEFF1"></rect><rect x="132" y="92" width="1" height="1" fill="#EEEFF1"></rect><rect x="4" y="100" width="1" height="1" fill="#EEEFF1"></rect><rect x="12" y="100" width="1" height="1" fill="#EEEFF1"></rect><rect x="20" y="100" width="1" height="1" fill="#EEEFF1"></rect><rect x="28" y="100" width="1" height="1" fill="#EEEFF1"></rect><rect x="36" y="100" width="1" height="1" fill="#EEEFF1"></rect><rect x="44" y="100" width="1" height="1" fill="#EEEFF1"></rect><rect x="52" y="100" width="1" height="1" fill="#EEEFF1"></rect><rect x="60" y="100" width="1" height="1" fill="#EEEFF1"></rect><rect x="68" y="100" width="1" height="1" fill="#EEEFF1"></rect><rect x="76" y="100" width="1" height="1" fill="#EEEFF1"></rect><rect x="84" y="100" width="1" height="1" fill="#EEEFF1"></rect><rect x="92" y="100" width="1" height="1" fill="#EEEFF1"></rect><rect x="100" y="100" width="1" height="1" fill="#EEEFF1"></rect><rect x="108" y="100" width="1" height="1" fill="#EEEFF1"></rect><rect x="116" y="100" width="1" height="1" fill="#EEEFF1"></rect><rect x="124" y="100" width="1" height="1" fill="#EEEFF1"></rect><rect x="132" y="100" width="1" height="1" fill="#EEEFF1"></rect><rect x="4" y="108" width="1" height="1" fill="#EEEFF1"></rect><rect x="12" y="108" width="1" height="1" fill="#EEEFF1"></rect><rect x="20" y="108" width="1" height="1" fill="#EEEFF1"></rect><rect x="28" y="108" width="1" height="1" fill="#EEEFF1"></rect><rect x="36" y="108" width="1" height="1" fill="#EEEFF1"></rect><rect x="44" y="108" width="1" height="1" fill="#EEEFF1"></rect><rect x="52" y="108" width="1" height="1" fill="#EEEFF1"></rect><rect x="60" y="108" width="1" height="1" fill="#EEEFF1"></rect><rect x="68" y="108" width="1" height="1" fill="#EEEFF1"></rect><rect x="76" y="108" width="1" height="1" fill="#EEEFF1"></rect><rect x="84" y="108" width="1" height="1" fill="#EEEFF1"></rect><rect x="92" y="108" width="1" height="1" fill="#EEEFF1"></rect><rect x="100" y="108" width="1" height="1" fill="#EEEFF1"></rect><rect x="108" y="108" width="1" height="1" fill="#EEEFF1"></rect><rect x="116" y="108" width="1" height="1" fill="#EEEFF1"></rect><rect x="124" y="108" width="1" height="1" fill="#EEEFF1"></rect><rect x="132" y="108" width="1" height="1" fill="#EEEFF1"></rect><rect x="4" y="116" width="1" height="1" fill="#EEEFF1"></rect><rect x="12" y="116" width="1" height="1" fill="#EEEFF1"></rect><rect x="20" y="116" width="1" height="1" fill="#EEEFF1"></rect><rect x="28" y="116" width="1" height="1" fill="#EEEFF1"></rect><rect x="36" y="116" width="1" height="1" fill="#EEEFF1"></rect><rect x="44" y="116" width="1" height="1" fill="#EEEFF1"></rect><rect x="52" y="116" width="1" height="1" fill="#EEEFF1"></rect><rect x="60" y="116" width="1" height="1" fill="#EEEFF1"></rect><rect x="68" y="116" width="1" height="1" fill="#EEEFF1"></rect><rect x="76" y="116" width="1" height="1" fill="#EEEFF1"></rect><rect x="84" y="116" width="1" height="1" fill="#EEEFF1"></rect><rect x="92" y="116" width="1" height="1" fill="#EEEFF1"></rect><rect x="100" y="116" width="1" height="1" fill="#EEEFF1"></rect><rect x="108" y="116" width="1" height="1" fill="#EEEFF1"></rect><rect x="116" y="116" width="1" height="1" fill="#EEEFF1"></rect><rect x="124" y="116" width="1" height="1" fill="#EEEFF1"></rect><rect x="132" y="116" width="1" height="1" fill="#EEEFF1"></rect><rect x="4" y="124" width="1" height="1" fill="#EEEFF1"></rect><rect x="12" y="124" width="1" height="1" fill="#EEEFF1"></rect><rect x="20" y="124" width="1" height="1" fill="#EEEFF1"></rect><rect x="28" y="124" width="1" height="1" fill="#EEEFF1"></rect><rect x="36" y="124" width="1" height="1" fill="#EEEFF1"></rect><rect x="44" y="124" width="1" height="1" fill="#EEEFF1"></rect><rect x="52" y="124" width="1" height="1" fill="#EEEFF1"></rect><rect x="60" y="124" width="1" height="1" fill="#EEEFF1"></rect><rect x="68" y="124" width="1" height="1" fill="#EEEFF1"></rect><rect x="76" y="124" width="1" height="1" fill="#EEEFF1"></rect><rect x="84" y="124" width="1" height="1" fill="#EEEFF1"></rect><rect x="92" y="124" width="1" height="1" fill="#EEEFF1"></rect><rect x="100" y="124" width="1" height="1" fill="#EEEFF1"></rect><rect x="108" y="124" width="1" height="1" fill="#EEEFF1"></rect><rect x="116" y="124" width="1" height="1" fill="#EEEFF1"></rect><rect x="124" y="124" width="1" height="1" fill="#EEEFF1"></rect><rect x="132" y="124" width="1" height="1" fill="#EEEFF1"></rect><rect x="4" y="132" width="1" height="1" fill="#EEEFF1"></rect><rect x="12" y="132" width="1" height="1" fill="#EEEFF1"></rect><rect x="20" y="132" width="1" height="1" fill="#EEEFF1"></rect><rect x="28" y="132" width="1" height="1" fill="#EEEFF1"></rect><rect x="36" y="132" width="1" height="1" fill="#EEEFF1"></rect><rect x="44" y="132" width="1" height="1" fill="#EEEFF1"></rect><rect x="52" y="132" width="1" height="1" fill="#EEEFF1"></rect><rect x="60" y="132" width="1" height="1" fill="#EEEFF1"></rect><rect x="68" y="132" width="1" height="1" fill="#EEEFF1"></rect><rect x="76" y="132" width="1" height="1" fill="#EEEFF1"></rect><rect x="84" y="132" width="1" height="1" fill="#EEEFF1"></rect><rect x="92" y="132" width="1" height="1" fill="#EEEFF1"></rect><rect x="100" y="132" width="1" height="1" fill="#EEEFF1"></rect><rect x="108" y="132" width="1" height="1" fill="#EEEFF1"></rect><rect x="116" y="132" width="1" height="1" fill="#EEEFF1"></rect><rect x="124" y="132" width="1" height="1" fill="#EEEFF1"></rect><rect x="132" y="132" width="1" height="1" fill="#EEEFF1"></rect></g><g opacity="0.1"><path d="M4.5 9V0" stroke="#EEEFF1"></path><path d="M9 4.5L0 4.5" stroke="#EEEFF1"></path></g><g opacity="0.1"><path d="M132.5 9V0" stroke="#EEEFF1"></path><path d="M137 4.5L128 4.5" stroke="#EEEFF1"></path></g><g opacity="0.1"><path d="M132.5 137V128" stroke="#EEEFF1"></path><path d="M137 132.5H128" stroke="#EEEFF1"></path></g><g opacity="0.1"><path d="M4.5 137V128" stroke="#EEEFF1"></path><path d="M9 132.5H0" stroke="#EEEFF1"></path></g><g opacity="0.2"><path d="M34.5 83.9998C36.9779 83.9998 39.3104 84.6218 41.3506 85.7175C41.3353 85.6183 41.3488 85.5133 41.3975 85.4167L42.29 85.8669C42.2325 85.9808 42.1364 86.0609 42.0264 86.1042C46.2074 88.6483 48.9999 93.2478 49 98.4998C49 106.508 42.5081 113 34.5 113C26.4919 113 20 106.508 20 98.4998C20.0001 90.4917 26.492 83.9998 34.5 83.9998ZM102.516 83.9998C110.524 83.9998 117.015 90.4917 117.016 98.4998C117.016 106.508 110.524 113 102.516 113C95.36 113 89.4161 107.817 88.2314 101H64.5C64.2239 101 64 100.776 64 100.5C64.0001 100.224 64.2239 99.9998 64.5 99.9998H88.0928C88.0421 99.5067 88.0156 99.0062 88.0156 98.4998C88.0158 90.4917 94.5076 83.9998 102.516 83.9998ZM34.5 84.9998C27.0442 84.9998 21.0001 91.044 21 98.4998C21 105.956 27.0442 112 34.5 112C41.9558 112 48 105.956 48 98.4998C47.9999 91.044 41.9558 84.9998 34.5 84.9998ZM102.516 84.9998C95.0599 84.9998 89.0158 91.044 89.0156 98.4998C89.0156 105.956 95.0598 112 102.516 112C109.971 112 116.016 105.956 116.016 98.4998C116.015 91.044 109.971 84.9998 102.516 84.9998ZM52.0615 64.2742C52.186 64.0281 52.4871 63.9293 52.7334 64.0535C52.9796 64.1779 53.0783 64.479 52.9541 64.7253L42.29 85.8669L41.8438 85.6414L41.3975 85.4167L52.0615 64.2742ZM68.5156 23.9998C76.5237 23.9998 83.0155 30.4917 83.0156 38.4998C83.0156 43.7583 80.2161 48.3629 76.0264 50.905L88.9277 72.241C89.0706 72.4772 88.9949 72.7845 88.7588 72.9275C88.552 73.0525 88.2906 73.0104 88.1328 72.8396L88.0723 72.7585L75.1533 51.3933C73.1643 52.4194 70.9079 52.9998 68.5156 52.9998C60.5075 52.9998 54.0156 46.5079 54.0156 38.4998C54.0158 30.4917 60.5076 23.9998 68.5156 23.9998ZM68.5156 24.9998C61.0599 24.9998 55.0158 31.044 55.0156 38.4998C55.0156 45.9556 61.0598 51.9998 68.5156 51.9998C75.9715 51.9998 82.0156 45.9556 82.0156 38.4998C82.0155 31.044 75.9714 24.9998 68.5156 24.9998Z" fill="#EEEFF1"></path></g><g opacity="0.07"><path d="M49.3828 62.9236C50.2534 61.1979 52.3582 60.5044 54.084 61.3748C55.8098 62.2453 56.5031 64.3501 55.6328 66.0759L45.9521 85.2673C49.6565 88.4761 51.9999 93.2142 52 98.4998C52 108.165 44.165 116 34.5 116C24.835 116 17 108.165 17 98.4998C17.0001 88.8349 24.8351 80.9998 34.5 80.9998C36.3641 80.9998 38.1599 81.292 39.8447 81.8318L49.3828 62.9236ZM102.516 80.9998C112.181 80.9998 120.015 88.8349 120.016 98.4998C120.016 108.165 112.181 116 102.516 116C94.7721 116 88.2042 110.97 85.8984 104H64.5C62.567 104 61 102.433 61 100.5C61.0001 98.5669 62.5671 96.9998 64.5 96.9998H85.0801C85.8411 88.0371 93.356 80.9998 102.516 80.9998ZM34.5 87.9998C28.7011 87.9998 24.0001 92.7009 24 98.4998C24 104.299 28.701 109 34.5 109C40.299 109 45 104.299 45 98.4998C44.9999 92.7009 40.2989 87.9998 34.5 87.9998ZM102.516 87.9998C96.7167 87.9998 92.0158 92.7009 92.0156 98.4998C92.0156 104.299 96.7166 109 102.516 109C108.315 109 113.016 104.299 113.016 98.4998C113.015 92.7009 108.315 87.9998 102.516 87.9998ZM68.5156 20.9998C78.1805 20.9998 86.0155 28.8349 86.0156 38.4998C86.0156 43.7649 83.6893 48.4859 80.0098 51.6941L91.4951 70.6892L91.584 70.8455C92.4606 72.4764 91.9129 74.5259 90.3105 75.4949C88.6565 76.4948 86.505 75.9643 85.5049 74.3103L73.918 55.1482C72.2164 55.7 70.4011 55.9998 68.5156 55.9998C58.8506 55.9998 51.0156 48.1647 51.0156 38.4998C51.0158 28.8349 58.8507 20.9998 68.5156 20.9998ZM68.5156 27.9998C62.7167 27.9998 58.0158 32.7009 58.0156 38.4998C58.0156 44.2987 62.7166 48.9998 68.5156 48.9998C74.3146 48.9998 79.0156 44.2987 79.0156 38.4998C79.0155 32.7009 74.3145 27.9998 68.5156 27.9998Z" fill="#EEEFF1"></path></g></svg>