<svg width="512" height="269" viewBox="0 0 512 269" fill="none" xmlns="http://www.w3.org/2000/svg">
<path d="M18.717 178.897L101.277 262.31C103.26 264.31 105.62 265.897 108.219 266.98C110.819 268.063 113.607 268.621 116.424 268.621C119.24 268.621 122.028 268.063 124.628 266.98C127.228 265.897 129.587 264.31 131.57 262.31C133.57 260.327 135.157 257.968 136.24 255.368C137.323 252.768 137.881 249.98 137.881 247.164C137.881 244.347 137.323 241.559 136.24 238.959C135.157 236.36 133.57 234 131.57 232.017L55.6237 155.644H490.61C496.268 155.644 501.695 153.396 505.695 149.395C509.696 145.395 511.944 139.968 511.944 134.31C511.944 128.652 509.696 123.226 505.695 119.225C501.695 115.225 496.268 112.977 490.61 112.977H54.3437L131.57 35.7504C135.353 31.7829 137.462 26.5118 137.462 21.0304C137.462 15.549 135.353 10.2779 131.57 6.31036C129.587 4.31082 127.228 2.72374 124.628 1.64068C122.028 0.557611 119.24 0 116.424 0C113.607 0 110.819 0.557611 108.219 1.64068C105.62 2.72374 103.26 4.31082 101.277 6.31036L18.717 88.4437C6.73191 100.444 0 116.71 0 133.67C0 150.63 6.73191 166.897 18.717 178.897Z" fill="black"/>
</svg>
