<svg width="512" height="512" viewBox="0 0 512 512" fill="none" xmlns="http://www.w3.org/2000/svg">
<path d="M192 469.333C184.043 469.333 176.085 466.389 169.877 460.459L28.6294 325.461C-9.3226 287.53 -9.3226 226.624 28.1174 189.184L169.707 51.7118C182.379 39.4238 202.645 39.7012 214.955 52.3732C227.264 65.0452 226.965 85.3118 214.293 97.6212L73.0454 234.773C67.3281 240.49 64.0001 248.533 64.0001 257.066C64.0001 265.6 67.3281 273.642 73.3654 279.701L214.101 414.208C226.88 426.411 227.328 446.656 215.125 459.435C208.832 466.027 200.427 469.333 192 469.333ZM342.315 460.245L483.499 322.752C520.917 285.312 520.917 224.426 483.008 186.496L342.123 51.5625C329.344 39.2958 309.099 39.7438 296.875 52.5225C284.651 65.2798 285.077 85.5465 297.835 97.7705L438.208 232.234C450.688 244.714 450.688 265.024 438.528 277.205L297.643 414.421C284.971 426.752 284.715 446.997 297.045 459.669C303.317 466.112 311.637 469.333 319.979 469.333C328.021 469.333 336.107 466.304 342.315 460.245Z" fill="black"/>
</svg>
