<svg width="800" height="800" viewBox="0 0 800 800" fill="none" xmlns="http://www.w3.org/2000/svg">
<g clip-path="url(#clip0_261_4599)">
<path d="M105.592 660.912C121.261 681.602 145.998 692.998 175.235 692.998H606.77C662.958 692.998 718.666 650.56 733.573 596.403L796.277 368.831C804.034 340.667 799.619 313.772 783.866 293.082C768.098 272.393 743.347 261.011 714.125 261.011H671.194L661.787 223.637C652.027 184.726 600.183 154.263 543.784 154.263H385.262C343.911 154.263 315.662 145.801 308.921 141.005C291.164 108.681 212.073 107.016 196.094 107.016H93.5619C64.8475 107.016 39.3345 118.271 21.7334 138.735C4.13243 159.185 -3.21542 186.066 1.31176 215.838L90.699 625.499C92.6875 638.432 97.6801 650.476 105.592 660.912ZM750.201 318.722C757.775 328.665 759.636 342.472 755.476 357.591L692.786 585.177C683.013 620.69 643.622 650.702 606.77 650.702H175.235C159.552 650.702 146.802 645.258 139.313 635.385C131.824 625.499 130.047 611.748 134.293 596.657L177.407 443.523C187.406 408.011 227.022 377.999 263.903 377.999H401.425C450.927 377.999 506.65 360.073 517.34 325.887C520.104 319.131 549.157 303.321 592.92 303.321H714.111C729.836 303.321 742.642 308.793 750.201 318.722ZM53.8045 166.307C63.2397 155.349 77.3713 149.298 93.5761 149.298H196.108C237.459 149.298 265.708 157.76 272.449 162.57C290.219 194.895 369.283 196.559 385.262 196.559H543.798C582.484 196.559 616.346 216.289 620.774 233.933L627.572 260.997H592.934C543.417 260.997 487.709 278.922 477.019 313.109C474.24 319.865 445.187 335.674 401.439 335.674H263.917C207.799 335.674 151.908 377.999 136.69 432.029L111.403 521.881L42.9026 208.138C40.4909 192.13 44.3694 177.265 53.8045 166.307Z" fill="black" stroke="black" stroke-width="14.1034"/>
</g>
<defs>
<clipPath id="clip0_261_4599">
<rect width="800" height="800" fill="white"/>
</clipPath>
</defs>
</svg>
