<svg width="800" height="800" viewBox="0 0 800 800" fill="none" xmlns="http://www.w3.org/2000/svg">
<path d="M633.333 300V593.333C633.333 630.67 633.333 649.34 626.067 663.6C619.677 676.143 609.477 686.343 596.933 692.733C582.673 700 564.003 700 526.667 700H273.333C235.996 700 217.328 700 203.067 692.733C190.523 686.343 180.324 676.143 173.933 663.6C166.667 649.34 166.667 630.67 166.667 593.333V206.667C166.667 169.33 166.667 150.661 173.933 136.401C180.324 123.856 190.523 113.658 203.067 107.266C217.328 100 235.997 100 273.333 100H433.333M633.333 300L433.333 100M633.333 300H466.667C448.257 300 433.333 285.076 433.333 266.667V100" stroke="black" stroke-width="66.6667" stroke-linecap="round" stroke-linejoin="round"/>
</svg>
