<svg width="800" height="800" viewBox="0 0 800 800" fill="none" xmlns="http://www.w3.org/2000/svg">
<path fill-rule="evenodd" clip-rule="evenodd" d="M0 266.667C0 193.029 59.6953 133.333 133.333 133.333H666.667C740.303 133.333 800 193.029 800 266.667V533.333C800 606.97 740.303 666.667 666.667 666.667H133.333C59.6953 666.667 0 606.97 0 533.333V266.667ZM133.333 200C96.5143 200 66.6667 229.848 66.6667 266.667V533.333C66.6667 570.153 96.5143 600 133.333 600H666.667C703.487 600 733.333 570.153 733.333 533.333V266.667C733.333 229.848 703.487 200 666.667 200H133.333ZM189.459 268.377C203.07 263.84 218.058 268.522 226.667 280L300 377.777L373.333 280C381.943 268.522 396.93 263.84 410.54 268.377C424.153 272.914 433.333 285.652 433.333 300V500C433.333 518.41 418.41 533.333 400 533.333C381.59 533.333 366.667 518.41 366.667 500V400L326.667 453.333C320.372 461.727 310.492 466.667 300 466.667C289.508 466.667 279.628 461.727 273.333 453.333L233.333 400V500C233.333 518.41 218.409 533.333 200 533.333C181.591 533.333 166.667 518.41 166.667 500V300C166.667 285.652 175.848 272.914 189.459 268.377ZM600 300C600 281.591 585.077 266.667 566.667 266.667C548.257 266.667 533.333 281.591 533.333 300V419.527L523.57 409.763C510.553 396.747 489.447 396.747 476.43 409.763C463.413 422.78 463.413 443.887 476.43 456.903L543.097 523.57C556.113 536.587 577.22 536.587 590.237 523.57L656.903 456.903C669.92 443.887 669.92 422.78 656.903 409.763C643.887 396.747 622.78 396.747 609.763 409.763L600 419.527V300Z" fill="#000"/>
</svg>
