<svg width="512" height="512" viewBox="0 0 512 512" fill="none" xmlns="http://www.w3.org/2000/svg">
<g clip-path="url(#clip0_258_4594)">
<path d="M405.333 0H106.667C78.3873 0.0338743 51.2759 11.2828 31.2794 31.2794C11.2828 51.2759 0.0338743 78.3873 0 106.667L0 405.333C0.0338743 433.613 11.2828 460.724 31.2794 480.721C51.2759 500.717 78.3873 511.966 106.667 512H405.333C433.613 511.966 460.724 500.717 480.721 480.721C500.717 460.724 511.966 433.613 512 405.333V106.667C511.966 78.3873 500.717 51.2759 480.721 31.2794C460.724 11.2828 433.613 0.0338743 405.333 0ZM106.667 42.6667H405.333C422.307 42.6667 438.586 49.4095 450.588 61.4118C462.591 73.4142 469.333 89.6928 469.333 106.667V405.333C469.297 414.837 467.109 424.209 462.933 432.747L267.456 237.269C257.551 227.361 245.791 219.502 232.847 214.14C219.904 208.777 206.031 206.017 192.021 206.017C178.011 206.017 164.139 208.777 151.195 214.14C138.252 219.502 126.492 227.361 116.587 237.269L42.6667 311.168V106.667C42.6667 89.6928 49.4095 73.4142 61.4118 61.4118C73.4142 49.4095 89.6928 42.6667 106.667 42.6667ZM106.667 469.333C89.6928 469.333 73.4142 462.591 61.4118 450.588C49.4095 438.586 42.6667 422.307 42.6667 405.333V371.499L146.731 267.435C152.674 261.487 159.731 256.77 167.499 253.551C175.266 250.332 183.592 248.675 192 248.675C200.408 248.675 208.734 250.332 216.501 253.551C224.269 256.77 231.326 261.487 237.269 267.435L432.747 462.933C424.209 467.109 414.837 469.297 405.333 469.333H106.667Z" fill="black"/>
<path d="M341.333 224C356.101 224 370.537 219.621 382.816 211.416C395.095 203.212 404.665 191.55 410.316 177.907C415.968 164.263 417.446 149.25 414.565 134.766C411.684 120.283 404.573 106.978 394.131 96.5359C383.688 86.0936 370.384 78.9823 355.9 76.1012C341.416 73.2202 326.403 74.6989 312.76 80.3502C299.116 86.0015 287.455 95.5718 279.25 107.851C271.046 120.13 266.667 134.566 266.667 149.333C266.667 169.136 274.533 188.128 288.536 202.131C302.539 216.133 321.531 224 341.333 224ZM341.333 117.333C347.662 117.333 353.849 119.21 359.112 122.726C364.374 126.242 368.476 131.24 370.898 137.087C373.32 142.935 373.953 149.369 372.719 155.576C371.484 161.783 368.436 167.485 363.961 171.961C359.486 176.436 353.784 179.484 347.576 180.718C341.369 181.953 334.935 181.319 329.088 178.897C323.24 176.475 318.243 172.374 314.726 167.111C311.21 161.849 309.333 155.662 309.333 149.333C309.333 140.846 312.705 132.707 318.706 126.706C324.707 120.705 332.846 117.333 341.333 117.333Z" fill="#000"/>
</g>
<defs>
<clipPath id="clip0_258_4594">
<rect width="512" height="512" fill="#000"/>
</clipPath>
</defs>
</svg>
