<svg width="128" height="128" viewBox="0 0 128 128" fill="none" xmlns="http://www.w3.org/2000/svg">
<path fill-rule="evenodd" clip-rule="evenodd" d="M64 30.0871C61.3478 30.0871 58.8043 31.1499 56.9289 33.0416C55.0536 34.9333 54 37.499 54 40.1742H74C74 37.499 72.9464 34.9333 71.0711 33.0416C69.1957 31.1499 66.6522 30.0871 64 30.0871ZM84 40.3087V40.1742C84 34.8237 81.8929 29.6923 78.1421 25.9089C74.3914 22.1255 69.3043 20 64 20C58.6957 20 53.6086 22.1255 49.8579 25.9089C46.1071 29.6923 44 34.8237 44 40.1742V40.3087C42.0667 40.645 40.3133 41.5326 38.9267 42.8103L33.0133 38.5536L26.9 24.6737L17.7667 28.7758L24.06 43.0659C24.66 44.4377 25.62 45.6213 26.8333 46.4955L35.6667 52.8571V60.3485H14V70.4356H35.6667V78.1623L28 84.6046C27.1165 85.3464 26.3947 86.2645 25.88 87.3012L17.8667 103.488L26.8133 107.993L34.68 92.1229L37.7467 89.5473C39.8609 94.8262 43.4901 99.3478 48.1687 102.532C52.8474 105.717 58.3624 107.42 64.0067 107.422H65.6667C71.1094 107.422 76.4221 105.743 80.891 102.609C85.3599 99.475 88.7712 95.0368 90.6667 89.8903L93.3333 92.1296L101.2 108L110.133 103.488L102.12 87.3012C101.605 86.2645 100.883 85.3464 100 84.6046L92.3333 78.1623V70.4356H114V60.3485H92.3333V52.8571L101.167 46.4955C102.378 45.6227 103.336 44.4384 103.94 43.0659L110.233 28.7758L101.1 24.6737L94.9867 38.5536L89.0733 42.8103C87.6556 41.5021 85.8942 40.6336 84 40.3087ZM82.3333 80.5227V50.2613H45.6667V80.1394L45.9 81.6592C46.5666 86.0207 48.7574 89.9979 52.0767 92.8726C55.3961 95.7473 59.6251 97.3299 64 97.3346H65.66C67.8487 97.3346 70.016 96.8997 72.0381 96.0548C74.0601 95.21 75.8975 93.9716 77.4451 92.4105C78.9928 90.8493 80.2204 88.996 81.058 86.9563C81.8956 84.9166 82.3267 82.7305 82.3267 80.5227" fill="#5A5A5A"/>
</svg>
