<svg width="128" height="128" viewBox="0 0 128 128" fill="none" xmlns="http://www.w3.org/2000/svg">
<path d="M14 28.2857C14 24.4969 15.5051 20.8633 18.1842 18.1842C20.8633 15.5051 24.4969 14 28.2857 14H99.7143C103.503 14 107.137 15.5051 109.816 18.1842C112.495 20.8633 114 24.4969 114 28.2857V99.7143C114 103.503 112.495 107.137 109.816 109.816C107.137 112.495 103.503 114 99.7143 114H28.2857C24.4969 114 20.8633 112.495 18.1842 109.816C15.5051 107.137 14 103.503 14 99.7143V28.2857ZM28.2857 24.7143C27.3385 24.7143 26.4301 25.0906 25.7603 25.7603C25.0906 26.4301 24.7143 27.3385 24.7143 28.2857V99.7143C24.7143 100.661 25.0906 101.57 25.7603 102.24C26.4301 102.909 27.3385 103.286 28.2857 103.286H99.7143C100.661 103.286 101.57 102.909 102.24 102.24C102.909 101.57 103.286 100.661 103.286 99.7143V28.2857C103.286 27.3385 102.909 26.4301 102.24 25.7603C101.57 25.0906 100.661 24.7143 99.7143 24.7143H28.2857ZM92.5714 49.7143H35.4286V39H92.5714V49.7143ZM78.2857 74.7143H35.4286V64H78.2857V74.7143Z" fill="#5A5A5A"/>
</svg>
