<svg width="128" height="128" viewBox="0 0 128 128" fill="none" xmlns="http://www.w3.org/2000/svg">
<path fill-rule="evenodd" clip-rule="evenodd" d="M23.6437 59.3125H40.6562C41.1125 48.1625 43.175 37.9812 46.4062 30.1687C46.9187 28.9437 47.4604 27.7646 48.0313 26.6312C41.4477 29.4468 35.7252 33.9524 31.4436 39.6916C27.162 45.4308 24.4733 52.1996 23.65 59.3125M64 14C50.7392 14 38.0215 19.2678 28.6447 28.6447C19.2678 38.0215 14 50.7392 14 64C14 77.2608 19.2678 89.9785 28.6447 99.3553C38.0215 108.732 50.7392 114 64 114C77.2608 114 89.9785 108.732 99.3553 99.3553C108.732 89.9785 114 77.2608 114 64C114 50.7392 108.732 38.0215 99.3553 28.6447C89.9785 19.2678 77.2608 14 64 14ZM64 23.375C63.0563 23.375 61.725 23.8125 60.05 25.525C58.3625 27.25 56.6313 29.9875 55.075 33.75C52.375 40.2688 50.4938 49.1875 50.0438 59.3125H77.9562C77.5062 49.1875 75.625 40.2688 72.925 33.75C71.3688 29.9875 69.6375 27.25 67.95 25.525C66.275 23.8187 64.9375 23.375 64 23.375ZM87.3437 59.3125C86.8875 48.1625 84.825 37.9812 81.5937 30.1687C81.0982 28.9689 80.5561 27.7889 79.9688 26.6312C86.5535 29.4459 92.2772 33.9511 96.56 39.6904C100.843 45.4296 103.532 52.199 104.356 59.3125H87.3437ZM77.9562 68.6875H50.0438C50.4938 78.8125 52.375 87.7313 55.075 94.25C56.6313 98.0125 58.3625 100.75 60.05 102.475C61.725 104.181 63.0563 104.625 64 104.625C64.9437 104.625 66.275 104.188 67.95 102.475C69.6375 100.75 71.3688 98.0125 72.925 94.25C75.625 87.7313 77.5062 78.8125 77.9562 68.6875ZM79.9625 101.369C80.5458 100.235 81.0875 99.0563 81.5875 97.8313C84.825 90.0188 86.8875 79.8375 87.3375 68.6875H104.356C103.532 75.8017 100.841 82.5715 96.5573 88.3108C92.2734 94.0501 86.5484 98.5549 79.9625 101.369ZM48.0375 101.369C47.4542 100.235 46.9125 99.0563 46.4125 97.8313C43.175 90.0188 41.1125 79.8375 40.6625 68.6875H23.6375C24.462 75.8017 27.1525 82.5715 31.4364 88.3108C35.7203 94.0501 41.4516 98.5549 48.0375 101.369Z" fill="#5A5A5A"/>
</svg>
