<svg width="128" height="128" viewBox="0 0 128 128" fill="none" xmlns="http://www.w3.org/2000/svg">
<path fill-rule="evenodd" clip-rule="evenodd" d="M64 23.4369C32.72 23.4369 13.18 57.2353 28.82 84.284C36.07 96.8348 49.49 104.563 64 104.563C95.28 104.563 114.82 70.7646 99.18 43.7259C91.93 31.1751 78.51 23.4369 64 23.4369ZM14 64.0049C14 25.5636 55.67 1.55029 89 20.761C104.47 29.6773 114 46.1722 114 64.0049C114 102.436 72.33 126.45 39 107.239C23.53 98.3225 14 81.8377 14 64.0049ZM64 45.2835C60.34 45.2835 57.75 47.8696 57.75 51.524H48.37C48.37 42.6975 55.16 35.9178 64 35.9178C72.84 35.9178 79.62 42.6975 79.62 51.524C79.62 58.5932 75.17 62.1677 72.36 64.3644C69.17 66.8705 68.69 67.4497 68.69 68.6878V73.3606H59.31V68.6878C59.31 62.5871 63.62 59.2821 66.05 57.415L66.57 57.0056C69.24 54.9188 70.25 53.8105 70.25 51.524C70.25 47.8696 67.66 45.2835 64 45.2835Z" fill="#5A5A5A"/>
<path d="M68.8535 84.1759C68.8535 88.865 63.7656 91.7993 59.6934 89.4596C57.8086 88.3678 56.6465 86.3596 56.6465 84.1759C56.6465 79.4868 61.7344 76.5525 65.7969 78.9019C67.6914 79.984 68.8535 82.0019 68.8535 84.1759Z" fill="#5A5A5A"/>
</svg>
