<svg width="128" height="128" viewBox="0 0 128 128" fill="none" xmlns="http://www.w3.org/2000/svg">
<path fill-rule="evenodd" clip-rule="evenodd" d="M64 23.3767C32.725 23.3707 13.175 57.2267 28.806 84.3077C31.219 88.4887 34.356 92.2017 38.075 95.2827C40.156 87.8707 46.925 82.7457 54.625 82.7517H73.375C81.25 82.7517 87.894 88.0517 89.925 95.2827C114.006 75.3267 107.45 36.7887 78.131 25.9137C73.606 24.2327 68.825 23.3767 64 23.3767ZM81.187 100.827V99.9387C81.187 95.6267 77.687 92.1267 73.375 92.1267H54.625C50.312 92.1267 46.812 95.6267 46.812 99.9387V100.827L47.187 100.996C52.312 103.327 58 104.627 64 104.627C70 104.627 75.687 103.327 80.812 101.002C80.937 100.933 81.062 100.877 81.187 100.827ZM14 64.0017C14 25.5077 55.662 1.45172 89 20.7017C104.469 29.6327 114 46.1387 114 64.0017C114 102.489 72.331 126.546 39 107.302C23.525 98.3707 14 81.8637 14 64.0017ZM64 42.1267C54.375 42.1267 48.362 52.5387 53.175 60.8767C55.406 64.7457 59.531 67.1267 64 67.1267C73.619 67.1267 79.637 56.7077 74.825 48.3767C72.587 44.5077 68.462 42.1267 64 42.1267ZM42.125 54.6267C42.125 37.7827 60.35 27.2637 74.937 35.6827C81.706 39.5887 85.875 46.8077 85.875 54.6267C85.875 71.4637 67.644 81.9887 53.062 73.5707C46.294 69.6637 42.125 62.4387 42.125 54.6267Z" fill="#5A5A5A"/>
</svg>
