<svg width="128" height="128" viewBox="0 0 128 128" fill="none" xmlns="http://www.w3.org/2000/svg">
<path d="M14 31.9663C14 22.9043 21.344 15.5603 30.406 15.5603H97.594C106.656 15.5603 114 22.9043 114 31.9663V83.5293C114 92.5913 106.656 99.9353 97.594 99.9353H41.806L21.012 111.816C17.887 113.598 14 111.348 14 107.748V31.9663ZM30.406 24.9353C26.525 24.9353 23.375 28.0853 23.375 31.9663V99.6733L39.312 90.5603H97.594C101.475 90.5603 104.625 87.4103 104.625 83.5293V31.9663C104.625 28.0853 101.475 24.9353 97.594 24.9353H30.406ZM89 53.0603H39V43.6853H89V53.0603ZM70.25 71.8103H39V62.4353H70.25V71.8103Z" fill="#5A5A5A"/>
</svg>
