<svg width="128" height="128" viewBox="0 0 128 128" fill="none" xmlns="http://www.w3.org/2000/svg">
<path d="M63.9985 14C66.0648 14 67.916 15.2749 68.6623 17.1997L80.0285 46.7547L109.378 49.007C113.22 49.3069 115.291 53.6453 113.12 56.82C112.858 57.1987 112.545 57.5387 112.191 57.8312L89.6597 76.6146L97.9935 107.687C98.986 111.408 95.5872 114.807 91.8685 113.813C91.3272 113.668 90.8072 113.428 90.341 113.108L63.9985 95.0442L37.6661 113.108C34.4998 115.295 30.1536 113.234 29.8411 109.395C29.7999 108.822 29.8536 108.242 29.9999 107.687L38.3411 76.6146L15.8024 57.8312C12.8424 55.3714 13.6636 50.6256 17.2749 49.2994C17.7086 49.1394 18.1561 49.0395 18.6149 49.007L47.9648 46.7547L59.331 17.1997C60.0773 15.2749 61.9285 14 63.9985 14ZM63.9985 32.9296L55.0311 56.2251L31.6598 58.0249L49.6586 73.0224L43.1736 97.1978L63.9985 82.9277L84.821 97.2028L78.3348 73.0286L96.3347 58.0312L72.9623 56.2313L63.9985 32.9296Z" fill="#5A5A5A"/>
</svg>
