<svg width="128" height="128" viewBox="0 0 128 128" fill="none" xmlns="http://www.w3.org/2000/svg">
<path d="M45.4426 67.6908L77.5826 36.8354L85.1536 44.1036L53.0136 74.9589C50.4276 77.4415 51.6056 81.6722 55.1416 82.5833C56.7776 83.0018 58.5276 82.5564 59.7266 81.4034L91.8686 50.549C99.8676 42.7116 96.0246 29.4991 84.9546 26.7621C79.9266 25.5209 74.5756 26.8937 70.8696 30.39L38.7286 61.2453C25.1426 74.2802 31.3566 96.5436 49.9066 101.317C58.5196 103.53 67.7046 101.165 74.0126 95.118L91.8686 77.9753L99.4396 85.2434L81.5826 102.386C61.8196 120.68 28.8366 111.573 22.2146 85.998C19.2586 74.5606 22.6296 62.4588 31.1576 53.9772L63.2986 23.1218C77.2686 9.82678 100.996 16.0457 105.996 34.3116C108.296 42.7116 105.803 51.6463 99.4396 57.8172L67.2976 88.6726C58.5986 96.4754 44.3636 92.3062 41.6776 81.1778C40.5136 76.3577 41.9216 71.3042 45.4426 67.6908Z" fill="#5A5A5A"/>
</svg>
