<svg width="128" height="128" viewBox="0 0 128 128" fill="none" xmlns="http://www.w3.org/2000/svg">
<path fill-rule="evenodd" clip-rule="evenodd" d="M78.1501 14.3168C79.9489 15.016 81.1346 16.7523 81.1346 18.6877V47.6573L100.743 51.5911C102.396 51.9226 103.742 53.1204 104.267 54.7262C104.792 56.3319 104.415 58.097 103.28 59.3458L54.9917 112.471C53.6918 113.901 51.6493 114.382 49.8503 113.683C48.0512 112.984 46.8655 111.248 46.8655 109.312V80.3432L27.2567 76.409C25.6046 76.0776 24.2583 74.8798 23.733 73.274C23.2077 71.6683 23.5848 69.9032 24.72 68.6543L73.0084 15.5295C74.3084 14.0993 76.3508 13.6176 78.1501 14.3168ZM37.1967 68.8425L56.2116 72.6573V97.2144L90.8035 59.1577L71.7885 55.3429V30.7861L37.1967 68.8425Z" fill="#5A5A5A"/>
</svg>
