<svg width="128" height="128" viewBox="0 0 128 128" fill="none" xmlns="http://www.w3.org/2000/svg">
<path fill-rule="evenodd" clip-rule="evenodd" d="M16 29.7143C16 22.1401 22.1401 16 29.7143 16H55.4286C63.0028 16 69.1429 22.1401 69.1429 29.7143V58.8571H98.2857C105.86 58.8571 112 64.9972 112 72.5714V98.2857C112 105.86 105.86 112 98.2857 112H72.5714C64.9972 112 58.8571 105.86 58.8571 98.2857V69.1429H29.7143C22.1401 69.1429 16 63.0028 16 55.4286V29.7143ZM58.8571 58.8571V29.7143C58.8571 27.8208 57.3221 26.2857 55.4286 26.2857H29.7143C27.8208 26.2857 26.2857 27.8208 26.2857 29.7143V55.4286C26.2857 57.3221 27.8208 58.8571 29.7143 58.8571H58.8571ZM69.1429 69.1429V98.2857C69.1429 100.179 70.6779 101.714 72.5714 101.714H98.2857C100.179 101.714 101.714 100.179 101.714 98.2857V72.5714C101.714 70.6779 100.179 69.1429 98.2857 69.1429H69.1429Z" fill="#5A5A5A"/>
</svg>
