<svg width="128" height="128" viewBox="0 0 128 128" fill="none" xmlns="http://www.w3.org/2000/svg">
<path fill-rule="evenodd" clip-rule="evenodd" d="M17 30.4286C17 23.0122 23.0122 17 30.4286 17H97.5714C104.988 17 111 23.0122 111 30.4286V97.5714C111 104.988 104.988 111 97.5714 111H30.4286C23.0122 111 17 104.988 17 97.5714V30.4286ZM30.4286 27.0714C28.5745 27.0714 27.0714 28.5745 27.0714 30.4286V97.5714C27.0714 99.4252 28.5745 100.929 30.4286 100.929H97.5714C99.4252 100.929 100.929 99.4252 100.929 97.5714V30.4286C100.929 28.5745 99.4252 27.0714 97.5714 27.0714H30.4286ZM93.0473 47.0809L59.4757 87.3664C58.5189 88.5145 57.1016 89.1786 55.6071 89.1786C54.1127 89.1786 52.6954 88.5145 51.7386 87.3664L34.9529 67.2238L42.69 60.7762L55.6071 76.2768L85.3098 40.6333L93.0473 47.0809Z" fill="#5A5A5A"/>
</svg>
