<svg width="128" height="128" viewBox="0 0 128 128" fill="none" xmlns="http://www.w3.org/2000/svg">
<path fill-rule="evenodd" clip-rule="evenodd" d="M42.3498 24.7146C40.3685 24.7146 38.7623 26.3136 38.7623 28.2861V98.3302L63.9982 80.6675L89.2377 98.3309V28.2861C89.2377 26.3136 87.6312 24.7146 85.6502 24.7146H42.3498ZM28 28.2861C28 20.3961 34.4246 14 42.3498 14H85.6502C93.5756 14 100 20.3961 100 28.2861V108.645C100 110.645 98.8814 112.478 97.0992 113.4C95.3169 114.321 93.1673 114.171 91.5243 113.021L63.9982 93.7579L36.4756 113.021C34.8326 114.171 32.683 114.321 30.9006 113.4C29.1181 112.478 28 110.645 28 108.645V28.2861Z" fill="#5A5A5A"/>
</svg>
