<svg width="128" height="128" viewBox="0 0 128 128" fill="none" xmlns="http://www.w3.org/2000/svg">
<path fill-rule="evenodd" clip-rule="evenodd" d="M70.25 45.3077C70.25 42.0027 71.567 38.833 73.9112 36.4961C76.2554 34.1591 79.4348 32.8462 82.75 32.8462C86.0652 32.8462 89.2446 34.1591 91.5888 36.4961C93.933 38.833 95.25 42.0027 95.25 45.3077C95.25 48.6127 93.933 51.7823 91.5888 54.1193C89.2446 56.4563 86.0652 57.7692 82.75 57.7692C79.4348 57.7692 76.2554 56.4563 73.9112 54.1193C71.567 51.7823 70.25 48.6127 70.25 45.3077ZM82.75 23.5C76.9484 23.5 71.3844 25.7976 67.282 29.8873C63.1797 33.9771 60.875 39.5239 60.875 45.3077C60.875 51.0915 63.1797 56.6383 67.282 60.7281C71.3844 64.8178 76.9484 67.1154 82.75 67.1154C88.5516 67.1154 94.1156 64.8178 98.218 60.7281C102.32 56.6383 104.625 51.0915 104.625 45.3077C104.625 39.5239 102.32 33.9771 98.218 29.8873C94.1156 25.7976 88.5516 23.5 82.75 23.5ZM32.75 51.5385C32.75 49.886 33.4085 48.3011 34.5806 47.1326C35.7527 45.9641 37.3424 45.3077 39 45.3077C40.6576 45.3077 42.2473 45.9641 43.4194 47.1326C44.5915 48.3011 45.25 49.886 45.25 51.5385C45.25 53.191 44.5915 54.7758 43.4194 55.9443C42.2473 57.1128 40.6576 57.7692 39 57.7692C37.3424 57.7692 35.7527 57.1128 34.5806 55.9443C33.4085 54.7758 32.75 53.191 32.75 51.5385ZM39 35.9615C34.856 35.9615 30.8817 37.6027 27.9515 40.5239C25.0212 43.4452 23.375 47.4072 23.375 51.5385C23.375 55.6697 25.0212 59.6318 27.9515 62.553C30.8817 65.4742 34.856 67.1154 39 67.1154C43.144 67.1154 47.1183 65.4742 50.0485 62.553C52.9788 59.6318 54.625 55.6697 54.625 51.5385C54.625 47.4072 52.9788 43.4452 50.0485 40.5239C47.1183 37.6027 43.144 35.9615 39 35.9615ZM30.4062 73.3462C26.055 73.3462 21.882 75.0693 18.8053 78.1366C15.7285 81.2039 14 85.3641 14 89.7019L14 98.2692H23.375V89.7019C23.375 85.8326 26.525 82.6923 30.4062 82.6923H45.25V73.3462H30.4062ZM51.5 95.1538C51.5 89.3701 53.8047 83.8232 57.907 79.7335C62.0094 75.6437 67.5734 73.3462 73.375 73.3462H92.125C97.9266 73.3462 103.491 75.6437 107.593 79.7335C111.695 83.8232 114 89.3701 114 95.1538V104.5H104.625V95.1538C104.625 91.8488 103.308 88.6792 100.964 86.3422C98.6196 84.0052 95.4402 82.6923 92.125 82.6923H73.375C70.0598 82.6923 66.8804 84.0052 64.5362 86.3422C62.192 88.6792 60.875 91.8488 60.875 95.1538V104.5H51.5V95.1538Z" fill="#5A5A5A"/>
</svg>
