<svg width="128" height="128" viewBox="0 0 128 128" fill="none" xmlns="http://www.w3.org/2000/svg">
<path d="M9 36.3333C9 28.6912 15.16 22.5 22.75 22.5H43.374C50.9711 22.5 57.124 28.6912 57.124 36.3333V77.8333C57.124 93.1115 44.8111 105.5 29.624 105.5V95.125C39.1186 95.125 46.8125 87.3845 46.8125 77.8333V70.9156H22.75C15.16 70.9156 9 64.7183 9 57.0823V36.3333ZM46.8125 60.5417V36.3333C46.8125 34.4243 45.2725 32.875 43.374 32.875H22.75C20.8525 32.875 19.3125 34.4243 19.3125 36.3333V57.0823C19.3125 58.9923 20.8525 60.5417 22.75 60.5417H46.8125ZM70.874 36.3333C70.874 28.6912 77.034 22.5 84.624 22.5H105.25C112.846 22.5 119 28.6912 119 36.3333V77.8333C119 93.1115 106.686 105.5 91.5 105.5V95.125C100.994 95.125 108.688 87.3845 108.688 77.8333V70.9156H84.624C77.034 70.9156 70.874 64.7183 70.874 57.0823V36.3333ZM108.688 60.5417V36.3333C108.688 34.4243 107.148 32.875 105.25 32.875H84.624C82.7275 32.875 81.1875 34.4243 81.1875 36.3333V57.0823C81.1875 58.9923 82.7275 60.5417 84.624 60.5417H108.688Z" fill="#5A5A5A"/>
</svg>
