<svg width="128" height="128" viewBox="0 0 128 128" fill="none" xmlns="http://www.w3.org/2000/svg">
<path d="M85.5312 17.625V27.5625H80.5625V36.5725L102.312 92.3086C103.096 94.3169 103.378 96.486 103.133 98.6277C102.889 100.77 102.125 102.819 100.909 104.599C99.6934 106.379 98.0614 107.836 96.1551 108.842C94.2488 109.849 92.1257 110.375 89.97 110.375H38.03C35.8743 110.375 33.7512 109.849 31.8449 108.842C29.9386 107.836 28.3066 106.379 27.0906 104.599C25.8746 102.819 25.1112 100.77 24.8667 98.6277C24.6223 96.486 24.904 94.3169 25.6876 92.3086L47.4375 36.5659V27.5625H42.4688V17.625H85.5312ZM34.9428 95.9192C34.7465 96.4215 34.6758 96.9641 34.7368 97.4999C34.7978 98.0357 34.9888 98.5485 35.293 98.9938C35.5972 99.439 36.0056 99.8033 36.4826 100.055C36.9595 100.306 37.4907 100.438 38.03 100.438H89.97C90.5093 100.438 91.0405 100.306 91.5174 100.055C91.9944 99.8033 92.4028 99.439 92.707 98.9938C93.0112 98.5485 93.2022 98.0357 93.2632 97.4999C93.3242 96.9641 93.2535 96.4215 93.0572 95.9192L83.186 70.625H44.8074L34.9428 95.9192ZM57.375 37.5C57.3658 38.1161 57.2492 38.7259 57.0305 39.302L48.6963 60.6875H79.3104L70.9695 39.302C70.7508 38.7259 70.6342 38.1161 70.625 37.5V27.5625H57.375V37.5Z" fill="#5A5A5A"/>
</svg>
