<svg width="512" height="512" viewBox="0 0 512 512" fill="none" xmlns="http://www.w3.org/2000/svg">
<path d="M443.883 91.5199C441.901 89.5378 439.547 87.9656 436.958 86.8929C434.368 85.8202 431.592 85.2681 428.789 85.2681C425.986 85.2681 423.211 85.8202 420.621 86.8929C418.031 87.9656 415.678 89.5378 413.696 91.5199C411.714 93.502 410.142 95.8551 409.069 98.4448C407.996 101.035 407.444 103.81 407.444 106.613C407.444 109.416 407.996 112.192 409.069 114.782C410.142 117.371 411.714 119.725 413.696 121.707C449.258 157.353 469.229 205.648 469.229 256C469.229 306.351 449.258 354.647 413.696 390.293C409.693 394.296 407.444 399.726 407.444 405.387C407.444 411.048 409.693 416.477 413.696 420.48C417.699 424.483 423.128 426.732 428.789 426.732C434.45 426.732 439.88 424.483 443.883 420.48C487.441 376.823 511.903 317.67 511.903 256C511.903 194.329 487.441 135.177 443.883 91.5199Z" fill="white"/>
<path d="M386.133 155.542C384.151 153.552 381.797 151.973 379.204 150.894C376.612 149.815 373.832 149.257 371.024 149.252C368.216 149.247 365.435 149.795 362.839 150.865C360.242 151.935 357.882 153.506 355.893 155.488C353.904 157.47 352.325 159.825 351.246 162.417C350.167 165.01 349.609 167.789 349.604 170.597C349.599 173.405 350.147 176.187 351.217 178.783C352.287 181.379 353.858 183.739 355.84 185.728C374.459 204.375 384.916 229.649 384.916 256C384.916 282.351 374.459 307.625 355.84 326.272C353.858 328.261 352.287 330.621 351.217 333.218C350.147 335.814 349.599 338.595 349.604 341.403C349.609 344.211 350.167 346.991 351.246 349.583C352.325 352.176 353.904 354.53 355.893 356.512C359.911 360.515 365.353 362.758 371.024 362.748C373.832 362.744 376.612 362.186 379.204 361.106C381.797 360.027 384.151 358.448 386.133 356.459C412.743 329.798 427.688 293.668 427.688 256C427.688 218.332 412.743 182.203 386.133 155.542Z" fill="white"/>
<path d="M294.827 4.26644C229.958 16.4535 172.26 53.1166 133.675 106.666H106.667C78.3908 106.712 51.2859 117.964 31.2918 137.958C11.2977 157.952 0.0451332 185.057 0 213.333L0 298.666C0.0451332 326.942 11.2977 354.047 31.2918 374.041C51.2859 394.035 78.3908 405.288 106.667 405.333H133.675C172.268 458.875 229.963 495.536 294.827 507.733C296.099 507.982 297.392 508.103 298.688 508.096C304.346 508.096 309.772 505.848 313.773 501.847C317.774 497.847 320.021 492.42 320.021 486.762V25.3011C320.029 22.168 319.347 19.0715 318.023 16.2319C316.699 13.3923 314.765 10.8792 312.36 8.87119C309.955 6.86319 307.137 5.40961 304.107 4.61376C301.077 3.81791 297.908 3.69933 294.827 4.26644ZM277.333 459.413C230.28 444.413 189.821 413.68 162.752 372.373C160.818 369.398 158.172 366.952 155.054 365.257C151.936 363.562 148.445 362.672 144.896 362.666H106.667C89.6928 362.666 73.4142 355.924 61.4118 343.921C49.4095 331.919 42.6667 315.64 42.6667 298.666V213.333C42.6667 196.359 49.4095 180.081 61.4118 168.078C73.4142 156.076 89.6928 149.333 106.667 149.333H145.067C148.612 149.333 152.1 148.449 155.218 146.762C158.336 145.074 160.984 142.637 162.923 139.669C189.937 98.3728 230.334 67.6252 277.333 52.5864V459.413Z" fill="white"/>
</svg>
