<svg width="512" height="512" viewBox="0 0 512 512" fill="none" xmlns="http://www.w3.org/2000/svg">
<path d="M405.333 64.0002H266.069C262.77 64.0219 259.509 63.2924 256.533 61.8668L189.205 28.0748C180.318 23.6491 170.526 21.3417 160.597 21.3335H106.667C78.3873 21.3674 51.2759 32.6163 31.2794 52.6129C11.2828 72.6094 0.0338743 99.7208 0 128L0 384C0.0338743 412.28 11.2828 439.391 31.2794 459.388C51.2759 479.384 78.3873 490.633 106.667 490.667H405.333C433.613 490.633 460.724 479.384 480.721 459.388C500.717 439.391 511.966 412.28 512 384V170.667C511.966 142.387 500.717 115.276 480.721 95.2795C460.724 75.283 433.613 64.034 405.333 64.0002ZM106.667 64.0002H160.597C163.897 63.9784 167.158 64.7079 170.133 66.1335L237.461 99.8188C246.34 104.281 256.132 106.625 266.069 106.667H405.333C418.092 106.688 430.552 110.521 441.116 117.675C451.68 124.829 459.864 134.977 464.619 146.816L42.6667 149.205V128C42.6667 111.026 49.4095 94.7477 61.4118 82.7453C73.4142 70.743 89.6928 64.0002 106.667 64.0002ZM405.333 448H106.667C89.6928 448 73.4142 441.257 61.4118 429.255C49.4095 417.253 42.6667 400.974 42.6667 384V191.872L469.333 189.461V384C469.333 400.974 462.591 417.253 450.588 429.255C438.586 441.257 422.307 448 405.333 448Z" fill="white"/>
</svg>
