<svg width="24" height="24" viewBox="0 0 24 24" fill="none" xmlns="http://www.w3.org/2000/svg">
<g clip-path="url(#clip0_260_4614)">
<path d="M19 0H5C2.243 0 0 2.243 0 5V19C0 21.757 2.243 24 5 24H13.515C15.385 24 17.143 23.271 18.465 21.949L21.949 18.465C23.271 17.143 24 15.385 24 13.515V5C24 2.243 21.757 0 19 0ZM5 22C3.346 22 2 20.654 2 19V5C2 3.346 3.346 2 5 2H19C20.654 2 22 3.346 22 5V13.515C22 13.68 21.968 13.838 21.953 14H17C15.346 14 14 15.346 14 17V21.953C13.838 21.969 13.68 22 13.515 22H5ZM17.051 20.535C16.736 20.85 16.376 21.099 16 21.316V17C16 16.448 16.448 16 17 16H21.316C21.099 16.376 20.85 16.736 20.535 17.051L17.051 20.535ZM8.361 9.463C8.201 10.362 7.342 11.015 6.321 11.015C5.495 11.015 4.718 10.682 4.191 10.101C3.959 9.846 3.978 9.451 4.234 9.219C4.489 8.987 4.884 9.006 5.116 9.261C5.402 9.577 5.852 9.765 6.32 9.765C6.768 9.765 7.084 9.5 7.13 9.244C7.192 8.899 6.679 8.682 6.52 8.623C5.768 8.346 5.09 8.043 5.09 8.043C4.49 7.661 4.226 7.074 4.313 6.464C4.407 5.815 4.881 5.286 5.552 5.084C6.869 4.687 7.959 5.583 8.004 5.621L8.007 5.623C8.27 5.844 8.304 6.236 8.083 6.499L8.078 6.504C7.857 6.767 7.465 6.801 7.203 6.58C7.178 6.559 6.57 6.085 5.913 6.281C5.62 6.369 5.562 6.563 5.551 6.642C5.543 6.701 5.538 6.848 5.681 6.944C5.697 6.944 6.295 7.207 6.953 7.45C8.176 7.901 8.482 8.785 8.361 9.463ZM14 9.099V7C14 5.906 14.891 5.015 16 5.015C16.769 5.021 17.437 5.46 17.772 6.094C17.992 6.512 17.69 7.015 17.218 7.015C16.983 7.015 16.774 6.881 16.663 6.674C16.536 6.439 16.284 6.269 16.001 6.265C15.61 6.265 15.252 6.567 15.252 7.016V9.083C15.252 9.532 15.61 9.834 16.001 9.834C16.409 9.827 16.751 9.494 16.751 9.099V9.015H16.501C16.225 9.015 16.001 8.791 16.001 8.515C16.001 8.239 16.225 8.015 16.501 8.015H17.251C17.665 8.015 18.001 8.351 18.001 8.765V9.099C18.001 10.189 17.105 11.076 16.001 11.083C14.892 11.084 14.001 10.194 14.001 9.099H14ZM12.987 5.746L12.018 10.391C11.942 10.755 11.621 11.016 11.25 11.016C10.89 11.016 10.577 10.771 10.489 10.423L9.318 5.771C9.222 5.388 9.511 5.016 9.906 5.016C10.184 5.016 10.427 5.205 10.495 5.475L11.205 8.298L11.788 5.499C11.847 5.218 12.095 5.016 12.382 5.016H12.394C12.779 5.016 13.067 5.37 12.988 5.747L12.987 5.746Z" fill="white"/>
</g>
<defs>
<clipPath id="clip0_260_4614">
<rect width="24" height="24" fill="white"/>
</clipPath>
</defs>
</svg>
