<svg width="512" height="512" viewBox="0 0 512 512" fill="none" xmlns="http://www.w3.org/2000/svg">
<g clip-path="url(#clip0_260_4616)">
<path d="M405.333 512H106.667C78.3873 511.966 51.2759 500.717 31.2794 480.721C11.2828 460.724 0.0338743 433.613 0 405.333L0 106.667C0.0338743 78.3873 11.2828 51.2759 31.2794 31.2794C51.2759 11.2828 78.3873 0.0338743 106.667 0L405.333 0C433.613 0.0338743 460.724 11.2828 480.721 31.2794C500.717 51.2759 511.966 78.3873 512 106.667V405.333C511.966 433.613 500.717 460.724 480.721 480.721C460.724 500.717 433.613 511.966 405.333 512ZM106.667 42.6667C89.6928 42.6667 73.4142 49.4095 61.4118 61.4118C49.4095 73.4142 42.6667 89.6928 42.6667 106.667V405.333C42.6667 422.307 49.4095 438.586 61.4118 450.588C73.4142 462.591 89.6928 469.333 106.667 469.333H405.333C422.307 469.333 438.586 462.591 450.588 450.588C462.591 438.586 469.333 422.307 469.333 405.333V106.667C469.333 89.6928 462.591 73.4142 450.588 61.4118C438.586 49.4095 422.307 42.6667 405.333 42.6667H106.667ZM199.296 362.773C190.403 362.744 181.675 360.367 173.995 355.883C166.407 351.54 160.11 345.26 155.747 337.684C151.384 330.109 149.111 321.51 149.163 312.768V199.232C149.155 190.488 151.448 181.897 155.81 174.319C160.172 166.741 166.45 160.444 174.014 156.058C181.579 151.673 190.163 149.354 198.907 149.335C207.65 149.315 216.245 151.595 223.829 155.947L336.427 212.16C344.248 216.382 350.798 222.619 355.397 230.225C359.996 237.83 362.478 246.528 362.585 255.415C362.691 264.303 360.419 273.057 356.004 280.771C351.588 288.484 345.19 294.877 337.472 299.285L222.784 356.608C215.631 360.688 207.531 362.814 199.296 362.773ZM198.763 192.107C197.587 192.106 196.432 192.415 195.413 193.003C194.307 193.618 193.389 194.523 192.757 195.62C192.126 196.718 191.805 197.966 191.829 199.232V312.768C191.837 314.015 192.168 315.239 192.791 316.319C193.414 317.399 194.308 318.299 195.384 318.929C196.46 319.56 197.681 319.899 198.928 319.915C200.175 319.931 201.405 319.622 202.496 319.019L317.184 261.675C318.038 261.007 318.717 260.141 319.163 259.153C319.609 258.164 319.808 257.082 319.744 256C319.771 254.731 319.449 253.479 318.813 252.381C318.177 251.282 317.252 250.38 316.139 249.771L203.627 193.557C202.16 192.657 200.483 192.157 198.763 192.107Z" fill="white"/>
</g>
<defs>
<clipPath id="clip0_260_4616">
<rect width="512" height="512" fill="white"/>
</clipPath>
</defs>
</svg>
